<?xml version="1.0" encoding="utf-8"?>
<!-- Generator: Adobe Illustrator 26.2.1, SVG Export Plug-In . SVG Version: 6.00 Build 0)  -->
<svg version="1.1" id="レイヤー_1" xmlns="http://www.w3.org/2000/svg" xmlns:xlink="http://www.w3.org/1999/xlink" x="0px"
	 y="0px" viewBox="0 0 696.7 491.7" style="enable-background:new 0 0 696.7 491.7;" xml:space="preserve">
<style type="text/css">
	.st0{fill:#D7E5A7;}
	.st1{clip-path:url(#SVGID_00000163053152030326176970000007613273846018031512_);}
	.st2{enable-background:new    ;}
	.st3{fill:#127616;}
	.st4{fill:#0C5210;}
	.st5{fill:#148419;}
	.st6{fill:#787878;}
	.st7{fill:#545454;}
	.st8{fill:#868686;}
	.st9{fill:#14AF26;}
	.st10{fill:#0EA124;}
	.st11{fill:#17991D;}
	.st12{fill:#2BBF3C;}
	.st13{fill:#A0F9A6;}
	.st14{fill:#121212;}
	.st15{fill:#222222;}
	.st16{fill:#FFFFFF;}
	.st17{fill:#898989;}
	.st18{fill:#B91901;}
	.st19{fill:#085613;}
	.st20{fill:#222421;}
	.st21{fill:#1D282D;}
	.st22{fill:#212E33;}
	.st23{fill:#2B2D29;}
	.st24{fill:#001211;}
	.st25{opacity:0.57;}
	.st26{fill-rule:evenodd;clip-rule:evenodd;fill:#03252B;}
	.st27{fill:#042C30;}
	.st28{fill:#151614;}
	.st29{fill:#D7D5D6;}
	.st30{fill:#EF676A;}
	.st31{fill:#E8A476;}
	.st32{fill:#DB9669;}
	.st33{fill:#F1B287;}
	.st34{fill:#3F210A;}
	.st35{fill-rule:evenodd;clip-rule:evenodd;fill:#361D07;}
	.st36{fill-rule:evenodd;clip-rule:evenodd;fill:#301808;}
	.st37{fill:#4F2B0C;}
	.st38{fill:#4C260C;}
	.st39{fill:#E9F6FA;}
	.st40{fill:#DAEDF2;}
	.st41{opacity:0.1;fill:#FFFFFF;enable-background:new    ;}
	.st42{fill-rule:evenodd;clip-rule:evenodd;fill:#EF676A;}
	.st43{fill:#D8555B;}
	.st44{fill:#70AFE9;}
	.st45{fill:#63A4D6;}
	.st46{fill:#22292B;}
	.st47{fill:#F1B488;}
	.st48{fill:#2E383B;}
	.st49{fill-rule:evenodd;clip-rule:evenodd;fill:#2E383A;}
	.st50{fill:#212B2D;}
	.st51{fill:#3C4548;}
	.st52{fill:#2E383A;}
	.st53{fill:#DBDCDE;}
	.st54{fill-rule:evenodd;clip-rule:evenodd;fill:#F1B287;}
	.st55{fill-rule:evenodd;clip-rule:evenodd;fill:#E8A476;}
	.st56{fill:#BFBEBE;}
	.st57{fill:#EDEFEF;}
	.st58{fill:#F0F1F2;}
	.st59{fill:#629D1B;}
	.st60{opacity:0.1;}
	.st61{fill:#F7FCFC;}
	.st62{fill:#3F2212;}
	.st63{fill:#F2B387;}
	.st64{fill-rule:evenodd;clip-rule:evenodd;fill:#DB9669;}
	.st65{fill-rule:evenodd;clip-rule:evenodd;fill:#4F2B0C;}
	.st66{fill:#D6D6D6;}
</style>
<g>
	<g>
		<circle id="SVGID_1_" class="st0" cx="350.2" cy="238.6" r="238.6"/>
	</g>
	<g>
		<defs>
			<circle id="SVGID_00000126316559258508982560000014496039178839257513_" cx="350.2" cy="238.6" r="238.6"/>
		</defs>
		<clipPath id="SVGID_00000037661298137864881680000005049998173848456323_">
			<use xlink:href="#SVGID_00000126316559258508982560000014496039178839257513_"  style="overflow:visible;"/>
		</clipPath>
		<g style="clip-path:url(#SVGID_00000037661298137864881680000005049998173848456323_);">
			<g>
				<g>
					<g class="st2">
						<g>
							<polygon class="st3" points="552.8,326.4 552.8,335.6 457.6,390.9 457.7,381.7 							"/>
						</g>
						<g>
							<polygon class="st4" points="457.7,381.7 457.6,390.9 324.1,313.8 324.2,304.6 							"/>
						</g>
						<g>
							<polygon class="st5" points="552.8,326.4 457.7,381.7 324.2,304.6 419.3,249.3 							"/>
						</g>
					</g>
				</g>
				<g>
					<g class="st2">
						<g>
							<polygon class="st6" points="502.9,216.1 502.6,329.3 482,341.3 482.4,228 							"/>
						</g>
						<g>
							<polygon class="st7" points="482.4,228 482,341.3 384,284.6 384.3,171.4 							"/>
						</g>
						<g>
							<polygon class="st8" points="502.9,216.1 482.4,228 384.3,171.4 404.8,159.5 							"/>
						</g>
					</g>
				</g>
				<g>
					<g class="st2">
						<g>
							<polygon class="st9" points="483.7,170.6 483.3,340.5 460,354 460.5,184.2 							"/>
						</g>
						<g>
							<polygon class="st10" points="460.5,184.2 460,354 363.7,298.4 364.2,128.6 							"/>
						</g>
						<g>
							<polygon class="st11" points="483.7,170.6 460.5,184.2 364.2,128.6 387.5,115.1 							"/>
						</g>
					</g>
				</g>
				<g>
					<polygon class="st11" points="462.3,112.5 477.4,102.1 470.1,227.8 455,238.2 					"/>
				</g>
				<g>
					<polygon class="st11" points="358.8,62.2 373.8,51.9 477.4,102.1 462.3,112.5 					"/>
				</g>
				<g>
					<polygon class="st12" points="462.3,112.5 455,238.2 351.5,187.9 358.8,62.2 					"/>
				</g>
				<g>
					<polygon class="st13" points="450.6,119.2 444.8,218.5 362.9,178.8 368.7,79.4 					"/>
				</g>
				<g>
					<g>
						<polygon class="st14" points="425.8,245.4 425.7,251.5 381.5,225.9 381.5,219.8 						"/>
					</g>
					<g>
						<path class="st15" d="M377.9,212.8l53,30.6v15.5l-53.1-30.6L377.9,212.8z M425.7,251.5v-6.1l-44.3-25.6v6L425.7,251.5
							L425.7,251.5z"/>
					</g>
				</g>
				<g>
					<g>
						<path class="st16" d="M383.6,256.4c3.9,2.2,6,6,5.9,9.1c0,3.1-1.3,4.6-6.8,7.1l7.1,4.1l-0.4,3.3l-11.2-6.5v-3.3
							c5.8-3.2,7.2-4.2,7.2-6.7c0-1.6-0.9-3.1-2.2-3.9c-1.2-0.7-2.1-0.6-3.1,0.2l-2.4-3.6C379.1,255.1,381,254.9,383.6,256.4z"/>
					</g>
					<g>
						<polygon class="st16" points="396.4,263.7 399.8,267.1 395.6,275.9 398.8,277.7 399.3,273.3 402.7,275.3 402.7,280 
							404.6,281.1 404.6,284.6 402.7,283.4 402.7,287.8 398.8,285.5 398.7,281.1 391.4,276.9 391.4,273.9 						"/>
					</g>
					<g>
						<polygon class="st16" points="412.7,269.4 416.2,272.4 410.1,295.3 406.5,292.3 						"/>
					</g>
					<g>
						<polygon class="st16" points="429.6,283.3 429.6,286.5 423.2,300 419.5,296.5 425.4,284.4 418.4,280.4 418.4,276.9 						"/>
					</g>
				</g>
				<g>
					<g>
						<polygon class="st16" points="383.1,153.8 383.1,160 377.7,156.9 377.7,150.7 						"/>
					</g>
					<g>
						<polygon class="st16" points="383.1,144.9 383.1,151.1 377.7,148 377.7,141.8 						"/>
					</g>
					<g>
						<polygon class="st16" points="383.1,136 383.1,142.3 377.7,139.1 377.7,132.9 						"/>
					</g>
					<g>
						<polygon class="st16" points="390.8,158.3 390.8,164.5 385.4,161.4 385.4,155.1 						"/>
					</g>
					<g>
						<polygon class="st16" points="390.8,149.4 390.8,155.6 385.4,152.5 385.4,146.3 						"/>
					</g>
					<g>
						<path class="st16" d="M377.7,116.7L432,148v8.8l-54.3-31.3V116.7z M426.1,150.4v-0.9l-0.5-0.3v-2.8l-1.2-0.7l-1.6,2v0.7
							l1.8,1.1v1.1l0.9,0.5V150L426.1,150.4L426.1,150.4z M420.6,148.5c1.1,0.6,1.7,0.4,1.7-0.5c0-0.6-0.4-1.3-0.9-1.7l0,0
							c0.5,0.1,0.8-0.2,0.8-0.7c0-0.7-0.5-1.5-1.4-2c-0.5-0.3-1-0.4-1.3-0.4l0.2,0.9c0.1,0,0.5,0,0.9,0.2s0.6,0.5,0.6,0.8
							c0,0.4-0.4,0.3-0.7,0.1l-0.4-0.2v0.8l0.4,0.2c0.4,0.3,0.9,0.7,0.8,1.2c0,0.4-0.3,0.5-0.8,0.2c-0.4-0.2-0.8-0.6-0.9-0.8
							l-0.2,0.7C419.6,147.7,420.1,148.2,420.6,148.5L420.6,148.5z M418.8,147.4v-0.9l-1.6-0.9l0,0l0.4-0.1c0.6-0.3,1.1-0.6,1.1-1.4
							c0-0.9-0.5-1.8-1.5-2.3c-0.5-0.3-1-0.4-1.3-0.3l0.3,1c0.2-0.1,0.5-0.1,0.9,0.1c0.5,0.3,0.7,0.7,0.7,1.1c0,0.5-0.4,0.8-1.4,1.2
							l-0.5,0.2v0.7L418.8,147.4L418.8,147.4z M427.7,152.6c1.1,0.6,1.8,0.2,1.8-0.7c0-0.6-0.2-1.1-0.5-1.5s-0.7-0.7-1.1-1l-0.3-0.1
							l0.1-0.7l1.6,0.9v-0.9l-2.3-1.3l-0.3,2.3c0.2,0.1,0.3,0.2,0.5,0.3c0.8,0.5,1.2,1,1.2,1.4c0,0.5-0.4,0.5-0.8,0.2
							c-0.4-0.2-0.8-0.5-0.9-0.8l-0.2,0.7C426.7,151.9,427.2,152.3,427.7,152.6L427.7,152.6z M414.5,144.9v-4.8l-0.8-0.4h-1.1
							l0.2,0.9h0.8l0,0v3.8L414.5,144.9L414.5,144.9z"/>
					</g>
					<g>
						<path d="M425.6,149.3l0.5,0.3v0.9l-0.5-0.3v1.1l-0.9-0.5v-1.1l-1.8-1.1v-0.7l1.6-2l1.2,0.7v2.7H425.6z M424.7,147.7
							c0-0.3,0-0.6,0-0.9l0,0c-0.1,0.2-0.3,0.4-0.4,0.7l-0.6,0.7l0,0l0.9,0.5v-1H424.7z"/>
					</g>
					<g>
						<path class="st17" d="M424.3,147.5c0.1-0.2,0.2-0.4,0.4-0.7l0,0c0,0.3,0,0.6,0,0.9v1.1l-0.9-0.5l0,0L424.3,147.5z"/>
					</g>
					<g>
						<polygon class="st16" points="390.9,140.5 390.8,146.7 385.4,143.6 385.5,137.4 						"/>
					</g>
					<g>
						<polygon class="st16" points="398.6,145 398.6,151.2 393.2,148.1 393.2,141.8 						"/>
					</g>
					<g>
						<polygon class="st16" points="398.5,162.7 398.5,168.9 393.1,165.8 393.1,159.6 						"/>
					</g>
					<g>
						<polygon class="st16" points="398.6,153.8 398.5,160.1 393.1,156.9 393.2,150.7 						"/>
					</g>
					<g>
						<polygon class="st18" points="431.9,182 431.9,188.2 407.6,174.2 407.7,168 						"/>
					</g>
					<g>
						<polygon points="414.5,140.1 414.5,144.9 413.5,144.3 413.6,140.5 413.5,140.5 412.8,140.5 412.6,139.6 413.7,139.6 						"/>
					</g>
					<g>
						<path d="M417.3,141.6c0.9,0.5,1.5,1.5,1.5,2.3s-0.5,1.1-1.1,1.4l-0.4,0.1l0,0l1.6,0.9v0.9l-3-1.7V145l0.5-0.2
							c0.9-0.4,1.3-0.7,1.4-1.2c0-0.4-0.2-0.8-0.7-1.1c-0.4-0.2-0.7-0.2-0.9-0.1l-0.3-1C416.2,141.2,416.7,141.3,417.3,141.6z"/>
					</g>
					<g>
						<path d="M420.8,143.6c0.9,0.5,1.4,1.3,1.4,2c0,0.5-0.3,0.7-0.8,0.7l0,0c0.5,0.4,0.9,1,0.9,1.7c0,0.8-0.6,1.1-1.7,0.5
							c-0.5-0.3-1-0.7-1.2-1.1l0.2-0.7c0.2,0.2,0.6,0.6,0.9,0.8c0.5,0.3,0.8,0.2,0.8-0.2c0-0.5-0.4-0.9-0.8-1.2l-0.4-0.2v-0.8
							l0.4,0.2c0.3,0.2,0.7,0.3,0.7-0.1c0-0.3-0.2-0.6-0.6-0.8c-0.3-0.2-0.7-0.2-0.9-0.2l-0.2-0.9
							C419.8,143.2,420.3,143.4,420.8,143.6z"/>
					</g>
					<g>
						<path d="M429.3,148.6v0.9l-1.6-0.9l-0.1,0.7l0.3,0.1c0.4,0.2,0.8,0.6,1.1,1c0.3,0.4,0.5,0.9,0.5,1.5c0,0.9-0.7,1.3-1.8,0.7
							c-0.5-0.3-0.9-0.7-1.2-0.9l0.2-0.7c0.2,0.2,0.6,0.5,0.9,0.8c0.4,0.2,0.8,0.3,0.8-0.2s-0.3-1-1.2-1.4c-0.2-0.1-0.4-0.2-0.5-0.3
							l0.3-2.3L429.3,148.6z"/>
					</g>
					<g>
						<polygon class="st19" points="431.9,192.7 431.9,196.8 377.6,165.5 377.6,161.4 						"/>
					</g>
					<g>
						<polygon class="st19" points="419.9,124.1 419.9,135.4 390.9,118.6 390.9,107.4 						"/>
					</g>
				</g>
			</g>
			<g>
				<g>
					<path class="st20" d="M347.6,382.4c1.9,0.4,7.2,2.9,3.6,6.4c-3.6,3.4-15,13.5-22,13.5h-4.7l-3.9,4.9c0,0-4.5,2.6-9.4,1.1
						c-3.5-1.1-3.5-6-3.5-6v-5.9C307.7,396.3,338.8,380.7,347.6,382.4z"/>
				</g>
			</g>
			<g>
				<g>
					<path class="st21" d="M309.7,265.9c0,0-2.4,46.4,0.3,58.5c0,0-5.3,60-1.9,73.4c0,0,13.1,5.2,13.2,3.1
						c1.9-28.4,0.6-59.6,0.6-69.6s3.3-46.8,3.3-54.3C325.3,276.9,317.2,271.8,309.7,265.9z"/>
				</g>
			</g>
			<g>
				<g>
					<path class="st22" d="M321.3,274.3c0,0-2.8,50-2.8,56.2s-1.4,70.3-1.4,70.3s-4.9-1.4-7.2-2.3c-2.3-0.9-0.8-52.1,1.7-60.5
						c2.6-8.3,0-18.4,0-20.8s-3-46.5,0-49.8L321.3,274.3z"/>
				</g>
			</g>
			<g>
				<g>
					<g>
						<path class="st20" d="M347.9,383.3c1.9,0.4,7.3,2.9,3.6,6.4c-3.6,3.4-15,13.5-22,13.5h-4.7l-3.9,4.9c0,0-4.5,2.6-9.3,1.1
							c-3.5-1.1-3.5-6-3.5-6v-4.7C308,398.5,339.1,381.6,347.9,383.3z"/>
					</g>
				</g>
				<g>
					<g>
						<path class="st23" d="M326.7,398.7c0,0,31.6-11.1,18.1-15.3c0,0-10.3,2.1-12.3,4.1C332.4,387.4,331.1,394.4,326.7,398.7z"/>
					</g>
				</g>
				<g>
					<g>
						<path class="st24" d="M302.2,249.5c0,0-0.1,46.1,5.8,74.3c0,0-3.6,65.8,0.2,75.8c0,0,12.5,6.1,19-5.8
							c8.7-16-0.8-52.4,5.4-79.5c6.2-27.1-0.4-67-0.4-72C332.2,237.2,302.2,249.5,302.2,249.5z"/>
					</g>
				</g>
				<g class="st25">
					<g>
						<path class="st26" d="M302.2,249.5c0,0,3.6,68.4,5.8,74.2c0,0-3.2,57.7,0.1,74.8c0,0,0.2,3.8,11.6,2.5c0,0,1.3-56,1.3-68.7
							s5-85.3,6.1-90.4L302.2,249.5z"/>
					</g>
				</g>
				<g>
					<g>
						<path class="st27" d="M303.8,248.9l18.9-5.9c-1,10.5-4.7,61.9-6.1,80.3c-1.7,23.3,1.2,74.7,1.2,77.7c0,0-6.9,1.3-9.6-1.3
							c-2.7-2.6,1.6-67.9,1.6-70.9C309.9,325.7,302.7,265.4,303.8,248.9z"/>
					</g>
				</g>
				<path class="st28" d="M348.8,392.1c0,0-14.8,10.4-24.3,9.4l-4.4,4.8c0,0-8,3.9-11.8-1.3c0,0,1.7,8.2,12.6,3.1l3.9-4.9
					c0,0,6.3,0.4,9.4-1.1C337.2,400.6,343.5,397.2,348.8,392.1z"/>
			</g>
			<path class="st28" d="M307.8,403c0,0-0.2,9.9,12.8,4.1l3.9-4.9h6.4l5.3-2.2l-11.7,0.8c0,0-4.5,4.2-5.3,5
				C318.3,406.7,310.1,409,307.8,403z"/>
			<g>
				<g>
					<g>
						<path class="st20" d="M377.1,398.9c1.9,0.4,7.2,2.9,3.6,6.4c-3.6,3.4-15,13.5-22,13.5H354l-3.9,4.9c0,0-4.4,2.6-9.4,1.1
							c-3.5-1.1-3.5-6-3.5-6v-4.7C337.3,414,368.4,397.2,377.1,398.9z"/>
					</g>
				</g>
				<g>
					<g>
						<path class="st23" d="M355.9,414.2c0,0,31.6-11.1,18.1-15.4c0,0-10.3,2.1-12.3,4.1C361.7,403,360.4,410,355.9,414.2z"/>
					</g>
				</g>
				<g>
					<g>
						<path class="st24" d="M331.4,265c0,0-0.1,46.1,5.8,74.3c0,0-3.6,65.8,0.2,75.8c0,0,12.6,6.1,19-5.8c8.7-16,1.3-62.2,7.5-89.3
							c6.2-27.2,0.4-61.4,0.4-66.4C364.4,248.6,331.4,265,331.4,265z"/>
					</g>
				</g>
				<g class="st25">
					<g>
						<path class="st26" d="M331.4,265c0,0,3.6,68.4,5.8,74.2c0,0-3.3,57.7,0,74.8c0,0,0.2,3.8,11.6,2.5c0,0,1.3-56,1.3-68.7
							s5-85.3,6.1-90.4L331.4,265z"/>
					</g>
				</g>
				<g class="st25">
					<g>
						<path class="st27" d="M333.1,264.4l18.9-5.9c-1,10.5-4.7,61.9-6.1,80.3c-1.7,23.3,1.2,74.7,1.2,77.6c0,0-6.9,1.3-9.6-1.3
							c-2.7-2.6,1.6-67.9,1.6-70.9C339.1,341.3,331.9,281,333.1,264.4z"/>
					</g>
				</g>
				<path class="st28" d="M378.1,407.7c0,0-14.8,10.4-24.3,9.4l-4.4,4.8c0,0-8,3.9-11.9-1.3c0,0,1.7,8.2,12.6,3.1l3.9-4.9
					c0,0,6.3,0.4,9.4-1.1C366.5,416.1,372.8,412.7,378.1,407.7z"/>
			</g>
			<g>
				<g>
					<g>
						<path class="st29" d="M347.5,145.7c0,0,15.5,6.3,19.3,14.3s-2.3,51.8-2.3,59.3s3.8,41.1,3.8,45.6c0,4.6-12.1,13-20.9,13
							c0,0-29.3,8.3-45.2-24c0,0-1.7-16.6,3.9-48.2c0,0-2.1-43.2-3.7-54.3c-0.9-6.2,1.7-28.8,21.6-16.3l11,7.2L347.5,145.7z"/>
					</g>
				</g>
			</g>
			<g>
				<g>
					<path class="st30" d="M347.5,145.7c0,0,15.5,6.3,19.3,14.3s-2.3,51.8-2.3,59.3s3.8,41.1,3.8,45.6c0,4.6-12.1,13-20.9,13
						c0,0-29.3,8.3-45.2-24c0,0-1.7-16.6,3.9-48.2c0,0-2.1-43.2-3.7-54.3c-0.9-6.2,1.7-28.8,21.6-16.3l11,7.2L347.5,145.7z"/>
				</g>
			</g>
			<path class="st24" d="M357.6,275.2c0,0,1.7-11.6,1.9-23.5c0,0,2.7,20.1,4.8,22.2C366.3,276.1,357.6,275.2,357.6,275.2z"/>
			<path class="st30" d="M347.5,145.7c0,0,15.5,6.3,19.3,14.3s-2.3,51.8-2.3,59.3s2.8,28.9,2.8,33.4c0,4.5-11.5-0.7-20.2-0.6
				c-0.4-10.2-0.5,1.4-0.5-6.8c0-13.7,2.7-45.8,5-57.9c2.4-12.1-3.7-20.3-8.9-24.1c-20.9-15.3-23.9-22.6-23.9-22.6l10.8-1.7l5.5,3.5
				L347.5,145.7z"/>
			<g>
				<g>
					<g>
						<path class="st31" d="M344.2,133.5c0,0-4,8.9,1.1,13.3c2.3,2-16.7,1.8-25.6-5.7c0,0,7.4-6.7,1.3-15.8L344.2,133.5z"/>
					</g>
				</g>
				<g>
					<g>
						<path class="st31" d="M343.7,142.2c0,0-8.2,7.2-19.8-4.4l1-3.8l0.2-2.1l5.9-20.7c0,0,3.5,14.8,6.3,19c1.2,1.8,6.5,5.6,6.5,5.6
							S342.7,138.7,343.7,142.2z"/>
					</g>
				</g>
				<path class="st32" d="M345.5,147.8c0,0-5.7-6.5-21.9-14.3l20.9,1.6C344.5,135.1,341.8,142.2,345.5,147.8z"/>
				<g>
					<g>
						<path class="st33" d="M350.4,97.3c0,0,5.3,7,4.7,11.4c-0.2,1.5-0.8,5.5-0.7,7.1c0.1,1.6,1.1,2.4,1.1,3.8
							c0.1,1.4-1.9,15.3-6.9,15.6s-11.8,6.2-27.3-7.6c0,0-11.8-14.1-2.9-29C318.4,98.5,329.7,83.4,350.4,97.3z"/>
					</g>
				</g>
				<path class="st31" d="M354.6,106c0,0-2.9,4.3-2.9,7.2c0,3,1.6,7.9,0,9.4c-1.6,1.6-4.2,2.5-5.5,5.5c-0.7,1.6-2,3.8-2,7.9
					c0,0-9.6,2.8-11.9-2l2-17.3l5.5-11.8l14.7,0.7L354.6,106z"/>
				<g>
					<g>
						<path class="st34" d="M314.5,108.2c-0.2,6.4,5.9,22.1,10.1,26.2c1.8,1.7,7.3,3.4,10.6,1.7c6.3-3.2-1.3-14.6,6.9-17.2
							c3.5-1.1,5.8,2.4,5.8,4.6c0,0,4.3-3.6,1.5-8.5c-1.1-2-2-5.8,1.4-9.1c1.9-1.8,2.4-1.2,3.6-0.1s3.5-7.5-3.1-11.4
							C340.7,88,315.2,84.5,314.5,108.2z"/>
					</g>
				</g>
				<path class="st35" d="M338.4,122.6c0,0-17.7,6.8-23.2-9.1c0,0,3.9,21.7,13.7,23c0,0,10.1,3.6,9.1-7.5L338.4,122.6z"/>
				<path class="st36" d="M349.6,107.9c0,0-27.4,4.5-34.1-5.7c0,0,0.1-1.4,1.3-3.4C316.7,98.7,317.4,112.2,349.6,107.9L349.6,107.9z
					"/>
				<path class="st36" d="M322.3,105.9c5.8,3.4,23,3.6,30.2,1.2c5.9-2,4.8-8.3,0.4-11.6c0.3,2.4,7.1,9.5-7.4,10.4
					c-0.5,0,1.8-1.8,2.5-2.8c0,0-7.6,4.6-9.6,2.3c-0.4-0.5,0.4-1.4,1.2-2.3c-1.5,0.2-5.9,2.4-7.2,1.8c-1.3-0.6,2.7-3.6,2.7-3.6
					s-8,3.5-9.2,1.8c-0.3-0.5,0.6-1.5,1.3-1.9c-4.1-0.3-9.4,0.8-10.5-1.6c0,0.2,0-0.2,0,0C316.9,101.2,319.2,104.2,322.3,105.9z"/>
				<path class="st37" d="M348.6,110c0,0-22.9,8.3-34-0.9c0,0-0.6-1.6,0.9-7c0,0,5.4,9.7,33.9,5.8L348.6,110z"/>
				<path class="st37" d="M348.6,110c0,0-25.4,3.3-33.9-4.2c0,0-0.2,2.6-0.1,4.1c0.3,4.1,2,5.6,4.6,7c0,0-2.7-2.3-0.9-4.9
					c0,0,0.7,4.5,3.4,5.4c0,0-0.9-2.1,0.2-2.9c0,0,1.5,3.6,3.6,3.9c0,0-2.6-4.2-1-5.3c0,0,0.3,5.1,4.7,5.8c0,0-1.8-2.5,0-3.8
					c0,0,1.3,3.8,4,3.8c0,0-1.2-3-0.5-4.3c0,0,1.2,3,3.6,3.6c0,0-1-3,0.1-4.1c0,0,1.1,3,5.1,3.5c0,0-3.1-3.5-0.8-5.2
					C342,111.4,348.6,110,348.6,110z"/>
				<path class="st38" d="M318.8,95.5c0,0,7-10.1,26.9-3.7c0,0-6.5-0.2-9.1-0.2s2,1.5,4.4,2c2.4,0.6-7-0.4-10.1-0.4
					c-3.2,0-8.8,1.1-4.8,1.7C330.1,95.5,319.5,94.8,318.8,95.5z"/>
			</g>
			<path class="st29" d="M345.8,146.6c0,0-21.3,2.4-25.7-7.5c0,0-4.5,1.5-0.6,4.7C323.6,147,348.1,154.9,345.8,146.6z"/>
			<g>
				<g>
					<path class="st39" d="M345.1,141.4l3.1,8c0,0-10.6,8-25.3-1.9c-2.3-1.5-8.7-4.1-0.7-11.4C322.1,136.1,327.2,148.7,345.1,141.4z
						"/>
				</g>
			</g>
			<g>
				<g>
					<path class="st40" d="M322.1,135c0,0-11.1,6.2,2.2,14.7c0,0,8.3,5,18.4,2c0,0-12-2.2-11.1-8.3
						C331.7,143.4,324.5,141.2,322.1,135z"/>
				</g>
			</g>
			<path class="st41" d="M302,255c0,0-1.7-16.6,3.9-48.2c0,0-2.1-43.2-3.7-54.3c-0.4-3.1,0-10.3,3-15.1c3.4,4.8,6.3,14.1,12.3,20.1
				c6.7,6.7,21.9,6.3,26.4,17.1s-8.4,43.8-12.5,62.7c-3.3,15.1,1.8,34.2,2.8,41.4C323.6,277.5,310.2,271.5,302,255z"/>
			<path class="st33" d="M383.3,202.8c0,0,25.7-12.1,29.8-13.5c4.1-1.3,8.2-1.1,9.2-1.6c0.9-0.5,11.3-4,12.9-2.1
				c1.5,1.9-7,5.5-7.9,5.6c-0.4,0,1.7,1.8,0.7,4.2c-1.1,2.7-5.4,5.3-10.1,5.7c-2.3,0.2-5.1-0.8-8.2,1.2s-25.5,16.3-26.8,16.9
				C381.5,219.8,383.3,202.8,383.3,202.8z"/>
			<path class="st42" d="M365.3,157.5c0,0-14.4-4.4-13.7,18.5c0,0,11.9,40.4,26.2,44.5c0,0,12.8,0.2,8.8-14.4
				C386.6,206.1,371.7,163.9,365.3,157.5z"/>
			<path class="st32" d="M385.2,201.9l1,3c0,0,25.3-13,28.3-13.3s9.1-2.4,10.3-3.1c1.3-0.7,8-3.4,8-3.4s-7.4,0.6-11.8,3
				c0,0-8.5,0.5-11.9,3L385.2,201.9z"/>
			<path class="st41" d="M347.3,171.5c-0.2-6.6-10.5-8.6-9-11.4c10.8,4.7,20.8,14.1,22.7,20.9c3,11.3,13.7,34.2,17.7,36.2
				c1.1,0.5,2,1.5,2.8,2.7c-2,0.7-3.7,0.7-3.7,0.7C363.5,216.4,347.3,171.5,347.3,171.5z"/>
			<path class="st43" d="M352.1,183.3c0,0-0.3,28.8,13.8,53.9c0,0-2.2-22.2-0.5-28.5L352.1,183.3z"/>
			<g>
				<g>
					<g>
						<g>
							<path class="st44" d="M241.8,379.8c-2.7-1.8-8.2-7.6-12.6-17.3c0,0-2.9-9.6-6.1-4.7c0,0,2.6-1.7,3.9,1.3c0,0,5.8,17,15,21.7
								c0,0-0.6,1.2-2.8,1.5L241.8,379.8z"/>
						</g>
					</g>
					<g>
						<g>
							<path class="st45" d="M224.6,357.3l-0.9,1.3C223.6,358.6,223.2,356.9,224.6,357.3z"/>
						</g>
					</g>
					<g>
						<g>
							<path class="st46" d="M223.1,380.8l2.3-0.9l-0.6-9.4l-2.1-4.1C222.7,366.4,222.3,374.4,223.1,380.8z"/>
						</g>
					</g>
					<g>
						<g>
							<path class="st44" d="M228.9,374.4c0,0,3.3,8.5,10.3,6.6C239.3,381,229.8,383.7,228.9,374.4z"/>
						</g>
					</g>
					<g>
						<g>
							<path class="st31" d="M222.2,299.2c0,0-6.4,13.8-0.7,34c1.7,6.2,3.5,16.2,0.7,24.9c0,0,2.2,21.2,15.8,24.5
								c6.5,1.6,2.2-4.9-2.4-13.4c-0.7-1.3-1.4-3.3-2.3-8.9c0,0,0,0.6,0,0c0-12.7,0.7-14,2.3-28.1c0,0,2.4-23.2,2.4-38.4
								L222.2,299.2z"/>
						</g>
					</g>
					<g>
						<g>
							<path class="st47" d="M237.9,382.7c2.8,0.7,3.6-0.1,3.3-1.8c-0.6-1.2-0.7-2.7-1.4-4c-0.4-0.8-1.5-2.5-1.9-3.3
								c-0.8-1.3-1.5-2.7-2.3-4.2c-0.7-1.3-1.4-3.3-2.3-8.9c0-12.7,0.7-14,2.3-28.1c0,0,1.4-15.3,2.4-28.6l-9-1.5
								c0,0-6.8,15.1-1.1,35.4c1.7,6.2,0.8,19.7-2,28.5c0,0,0.4,4,2,8.7C230.1,378.5,233.4,381.6,237.9,382.7z"/>
						</g>
					</g>
					<g>
						<g>
							<path class="st48" d="M222.8,356c0,0-5.9,2.9-1.6,13.2c0,0,1.2,8.6,0.9,10.9l1.2,0.7c0,0-0.5-11.2-0.1-11.6
								c0,0,3.3,4.1,4.6,10.7c0,0,0.6,7.7,15.8,6.4l-0.3-0.5l-4.5-5.6c0,0-4.6,1-7.4-1.5c-3-2.7-8.6-18-8.6-18l-0.5-2.9L222.8,356z"
								/>
						</g>
					</g>
					<g>
						<g>
							<path class="st48" d="M238,374.1c0,0,10,10.9,6.8,11.9c-6.2,1.9-12.5-2.7-15.9-7.8C225.2,372.4,244.9,387.9,238,374.1z"/>
						</g>
					</g>
					<g>
						<g>
							<g>
								<path class="st46" d="M238,374.1c0,0,8.5,9.9,5.7,10.8c-5.5,1.7-13.7-4.1-14.8-7.3C228.6,376.5,246.6,388.3,238,374.1z"/>
							</g>
						</g>
					</g>
				</g>
				<g>
					<g>
						<g>
							<g>
								<path class="st44" d="M271.7,359.9c-2.8-1.8-8.4-7.6-13-17.5c0,0-3.1-9.7-6.2-4.7c0,0,2.6-1.8,3.9,1.2c0,0,6.2,17.2,15.5,22
									c0,0-0.6,1.3-2.8,1.6L271.7,359.9z"/>
							</g>
						</g>
						<g>
							<g>
								<path class="st45" d="M254,337.1l-0.9,1.4C253.1,338.5,252.6,336.8,254,337.1z"/>
							</g>
						</g>
						<g>
							<g>
								<path class="st46" d="M253,361.2l2.3-1l-0.8-9.6l-2.1-4.1C252.3,346.5,252,354.7,253,361.2z"/>
							</g>
						</g>
						<g>
							<g>
								<path class="st44" d="M258.7,354.6c0,0,3.4,8.6,10.5,6.5C269.2,361.2,259.8,364,258.7,354.6z"/>
							</g>
						</g>
						<g>
							<g>
								<path class="st31" d="M250.5,277.9c0,0-6.2,14.2-0.1,34.8c1.8,6.3,3.8,16.5,1.2,25.5c0,0,2.6,21.6,16.3,24.8
									c6.6,1.5,2.1-5.1-2.7-13.6c-0.8-1.4-1.5-3.3-2.5-9.1c0,0,0,0.6,0,0c-0.2-12.9,0.4-14.3,1.8-28.7c0,0,0-23.5-0.3-39
									L250.5,277.9z"/>
							</g>
						</g>
						<g>
							<g>
								<path class="st47" d="M267.9,362.9c2.8,0.6,3.6-0.1,3.2-1.9c-0.7-1.2-0.8-2.8-1.5-4.1c-0.4-0.8-1.5-2.5-2-3.3
									c-0.8-1.3-1.6-2.8-2.4-4.3c-0.8-1.4-1.5-3.3-2.5-9.1c-0.2-12.9,0.4-14.3,1.8-28.7c0,0-0.3-17,0.5-30.7h-7.7
									c0,0-6.5,15.6-0.5,36.1c1.9,6.3,1.2,20.2-1.5,29.1c0,0,0.5,4,2.2,8.9C260,358.7,263.3,361.9,267.9,362.9z"/>
							</g>
						</g>
						<g>
							<g>
								<path class="st48" d="M252.1,335.9c0,0-5.9,3-1.3,13.6c0,0,1.3,8.8,1.2,11.1l1.2,0.7c0,0-0.7-11.4-0.4-11.8
									c0,0,3.4,4.1,4.8,10.8c0,0,0.7,7.8,16,6.2l-0.3-0.5l-4.6-5.6c0,0-4.7,1.1-7.5-1.4c-3-2.7-9-18.3-9-18.3l-0.6-2.9
									L252.1,335.9z"/>
							</g>
						</g>
						<g>
							<g>
								<path class="st48" d="M267.8,354.1c0,0,10.2,11,7.1,12c-6.2,2.1-12.6-2.6-16.1-7.8C254.9,352.6,275,368.1,267.8,354.1z"/>
							</g>
						</g>
						<g>
							<g>
								<path class="st46" d="M267.8,354.1c0,0,8.7,10,5.9,10.9c-5.6,1.8-13.9-3.9-15-7.2C258.4,356.7,276.7,368.5,267.8,354.1z"/>
							</g>
						</g>
					</g>
					<path class="st49" d="M241.9,182.3c-1.8,8.2-9.4,8.7-6,22.1c3.4,13.3,11.4,39.4,10.9,51.9c-0.4,8.4-2.7,9.6-3.6,20.7
						c-1.1,13.4,5.2,46,5.2,60.7c0.7,3.5,7.2,8.9,15.9,2.5c0.6-12.9,1-64,4-77.9c2.3-7.7,1.6-20.5,2-28.1c0.8-17.2-0.4-30-1.2-45.5
						c-0.8-6-4.8-11.6-5.9-16.7L241.9,182.3z"/>
					<path class="st50" d="M246.8,256.2c-0.4,8.4-2.7,9.6-3.6,20.7c-1.1,13.4,5.2,46,5.2,60.7c0.4,2.1,3,4.9,6.8,5.4
						c-1.2-21.9-2.7-60.7-2.7-60.7c7-63.1-5-87.5-5-87.5l-7,22.5C243,227.4,247.1,249.7,246.8,256.2z"/>
					<path class="st51" d="M268.3,262.2c4.9-23.6,0.5-65.9,0.8-73.5l0,0l-5.9-16.7c0,0,5.5,77.7-4.3,118.1c0,0-0.9,31.9,1.1,52.3
						c1.3-0.5,2.8-1.2,4.3-2.3C264.9,327.2,265.3,276,268.3,262.2z"/>
				</g>
				<path class="st52" d="M225.6,183.4c0,0-2,4.2-6.6,8.8s-9.2,16.8-4.1,37c0,0,7.7,33,7.7,39.6c0,6.6-7,17.8-7,26.8
					c0,9.1,3.5,44.3,3.5,58.4c0,0,0.6,7.9,16.8,3.8c0,0,0.7-48.8,5.5-73.7s4.8-58.6,4.8-68.5s0-33,0-35.9
					C246.3,179.7,237.1,186,225.6,183.4z"/>
				<path class="st51" d="M241.5,284.2c-4.8,24.9-5.5,73.7-5.5,73.7c-2.5,0.6-4.7,1-6.5,1.1c0.5-21.6,6.8-80.5,7.6-104.4
					c0.8-24.8-4.1-55.6-4.1-55.6l13.3-3.1c0,7.1,0,14.9,0,19.7C246.3,225.6,246.3,259.3,241.5,284.2z"/>
				<path class="st50" d="M222.7,268.8c0-6.6-7.7-39.6-7.7-39.6c-4.2-16.3-2-27.4,1.5-33.5c3.1,2,5,3.3,5,3.3s-1.2,17.9,3.3,39.9
					c4.5,22.1,4.5,37.3,0,50.4c-3.6,10.6-1.4,53.1-0.4,69.3c-1.2-0.3-2.1-0.7-2.8-1.1l-2.4-5.6c-0.3-15.2-3.5-47.6-3.5-56.2
					C215.7,286.6,222.7,275.4,222.7,268.8z"/>
				<g>
					<g>
						<g>
							<g>
								<g>
									<path class="st53" d="M253,104c0,0-15,2.5-1,35.5c0,0,1.6,26.4,7.9,29s6,1.5,7.2-5.2C269.7,148.3,269.9,102.6,253,104z"/>
								</g>
							</g>
						</g>
					</g>
					<g>
						<g>
							<g>
								<g>
									<g>
										<path class="st54" d="M274.4,223.7c2.9,1,2.9-3.5,2.6-4.7c0.1-1.8-0.3-2.6,0.7-3.7c1.2-1.2-5.4-14.3-5.9-12.5
											c-0.1,0.8-2.1,8.3,1.2,14.4c0.7,1.4,1.1,1.4,1.3,3.1C274.4,221.3,274.4,222.3,274.4,223.7z"/>
									</g>
								</g>
							</g>
						</g>
						<g>
							<g>
								<g>
									<g>
										<path class="st55" d="M275.1,223.9c2.2,0.1,2.1-3.7,1.8-4.9c0.1-1.8-0.3-2.6,0.7-3.7c0.8-0.8-3.5-3.1-3,1.1
											C275.1,218.3,276.5,220.9,275.1,223.9z"/>
									</g>
								</g>
							</g>
						</g>
						<g>
							<g>
								<g>
									<g>
										<path class="st54" d="M278.3,200.3c0.5,2.2,1.3,2.7,1.7,3.8c0.9,3.2,4.5,2.4,6.1,8.3l1.5,6.5c0.2,0.9-0.3,3.8-2.1,5.5
											c-1.1,1-2.2,1.8-2.2,1.8c-1.1,0.9-3.8,2.3-3.1-3.2c0.2-1.8-0.7-3.5-0.7-3.5c-4.9-5.5-1.5-5.3-3.8-7.7
											c-2.1-2.2-2.3-3.4-5.3-8l3.1-2.3l2.7-1.4L278.3,200.3z"/>
									</g>
								</g>
							</g>
						</g>
						<g>
							<g>
								<g>
									<g>
										<path class="st55" d="M278.3,200.3c0,0,1.7,5.1,4.9,7.3c0,0,3.5,1.9,4.2,10.2c0,0,1.9,4.8-4,8.5c0,0,4.5-5.1,2.1-10.1
											s-4-7.1-5.6-8.6s-5.2-6.5-5.2-6.5S276.9,199.6,278.3,200.3z"/>
									</g>
								</g>
							</g>
						</g>
					</g>
					<g>
						<g>
							<path class="st53" d="M270.2,208.3c0,0-21.7-38.7-13.4-53.8c0,0,6-7.9,11.1,1.8c5.6,10.7,10.7,36.4,11.6,43.2
								C280.4,206.4,273.4,208.1,270.2,208.3z"/>
						</g>
					</g>
					<g>
						<path class="st56" d="M251.9,139.4c0,0,0.7,12.3,3.2,20.9c-2,17.4,15.1,48,15.1,48c0.9-0.1,2.1-0.2,3.4-0.6
							c-2.3-6.8-9.9-33.9-11.6-46c-1.4-10.6-7.2-44.4-9.5-57.6C250.3,104.8,239.3,109.8,251.9,139.4z"/>
					</g>
					<g>
						<path class="st57" d="M267.9,156.2c1.1-12.6,0.6-32.4-4.3-43.7c0.2,14.5,0.7,38.1,1.8,43.2c1.3,6,7.6,27.2,13.4,39
							c-1.8-10.1-6.2-29.4-10.8-38.3C267.9,156.3,267.9,156.2,267.9,156.2z"/>
					</g>
				</g>
				<g>
					<g>
						<path class="st58" d="M208.3,131.7c0,0,1.7-18.4,44.5-27.4c0,0,0.1,0.1,0.2,0.2c0.8-0.1,1.6-0.2,2.5-0.3c0,0,2.7,1.9,2.7,8.3
							c0,0,1.6,10.6,4.1,13.1c4.3,4.3,6.8,12.5,4.4,17.7c-0.2,2.5-0.9,5.5-2.2,9c-1.4,5.2-3,13.6-2.6,23c0.3,2.9,0.9,5.6,1.7,7.3
							c0,0-27.1,21.3-41.4,5.5c0,0,4.6-9-1.5-22.1c0,0-2.7-4.9-3.4-8.1c-0.2-0.2-0.4-0.4-0.7-0.6c0,0-0.1-0.1-0.2-0.1
							c0,0,0-0.1-0.1-0.2C210,151.5,206.3,139,208.3,131.7z"/>
					</g>
				</g>
				<g>
					<g>
						<path class="st59" d="M205.9,130.6c0,0,4.9-10.7,10.8-12.9c2.7-1,29.7,33.2,38,31.4c0,0-5-43.1-4.9-42.9
							c0.8-0.1,4.7-1.9,5.5-2c0,0,2.7,1.9,2.7,8.3c0,0,1.6,10.6,4.1,13.1c4.3,4.3,6.8,12.5,4.4,17.7c-0.2,2.5-0.9,5.5-2.2,9
							c-1.4,5.2-2.7,13.2-2.7,21.1c0.4,2.9,0.9,7.6,1.7,9.3c0,0-27.1,21.3-41.4,5.5c0,0,4.6-9-1.5-22.1c0,0-2.7-4.9-3.4-8.1
							c-0.2-0.2-0.4-0.4-0.7-0.6c0,0-0.1-0.1-0.2-0.1c0,0,0-0.1-0.1-0.2C210,151.5,205.9,143.2,205.9,130.6z"/>
					</g>
				</g>
				<g class="st60">
					<g>
						<g>
							<g>
								<path d="M207.9,126.8c0,0,15.5-9.1,21.2,15c2.9,12.3,1.4,14,6.1,18.8c1.1,1.1,3.9,5.8,18.7-4.9c0,0,13.2-9.3,12.7-14.3
									c0,0,0.2,3.7-2.4,11.3c-0.4,1.2,0.5-1.4,0,0c-0.6,1.6,0.7-3.5,0,0c0,0-9.8,8.9-18.4,10.9c-7.1,1.6-15.9,3.8-13,28.6
									c0,0-8.2-1-10.8-3.9c0,0,6.4-9.6-4.7-28.2c0,0-8.7-26.3-11.5-29.4L207.9,126.8z"/>
							</g>
						</g>
					</g>
				</g>
				<g class="st60">
					<g>
						<g>
							<g>
								<path d="M244.8,108.6c7.9,12.5-2.9,20.3-2.9,20.3l12.4,4.6c0,0,2.8-11.9-4.5-23.1C249.1,109.5,246.3,108.7,244.8,108.6z"/>
							</g>
						</g>
					</g>
				</g>
				<g class="st60">
					<g>
						<g>
							<g>
								<path d="M226.4,114.5c4.5,8.1,17.8,15.8,17.8,15.8l-3.3,10.9c0,0-24.4-15.5-15.5-25.4C226.1,115.1,225.4,115.9,226.4,114.5z
									"/>
							</g>
						</g>
					</g>
				</g>
				<g>
					<g>
						<path class="st59" d="M227.9,131.1c0,0-6.6-9.9-4.5-13.4l-4.7-2.4c0,0-4.5,2.4-9.1,8.8L227.9,131.1z"/>
					</g>
				</g>
				<g>
					<g>
						<g>
							<g>
								<path class="st31" d="M244.5,128c0,0,3.6-3.9,3.4-6.7c-0.2-3.6-4.2-8.6-3.4-15c0,0-11.9,0.4-15.7-3.3v16.2
									C228.8,119.2,235.2,128,244.5,128z"/>
							</g>
						</g>
					</g>
				</g>
				<g>
					<g>
						<g>
							<g>
								<path class="st61" d="M243.6,106.2c7.8,12.5-0.6,21.8-0.6,21.8l10.1,3.1c0,0,2.8-11.9-4.5-23.1
									C248,107.2,245.2,106.4,243.6,106.2z"/>
							</g>
						</g>
					</g>
				</g>
				<g>
					<g>
						<g>
							<g>
								<path class="st61" d="M225.2,112.2c4.5,8.1,17.8,15.8,17.8,15.8l-3.3,10.9c0,0-24.4-15.5-15.5-25.4
									C224.9,112.8,224.2,113.5,225.2,112.2z"/>
							</g>
						</g>
					</g>
				</g>
				<g>
					<g>
						<g>
							<g>
								<path class="st62" d="M256.1,84.5c0,0,5.5,22.7-8.1,33.2l-3.3-9.3c0,0,5.4-22.8,3.7-28.4C248.4,80,252.9,73.8,256.1,84.5z"
									/>
							</g>
						</g>
					</g>
				</g>
				<g>
					<g>
						<g>
							<g>
								<path class="st63" d="M248,79c0,0,1.7,1.1,1.7,8.1c0,0,1.7,1.4,2.5,8.8c0,0-0.7,11.8-5.4,11.8c0,0-16.6,1.7-20.4-4.4
									c0,0-6.8-10-6.8-16.2s1.4-11,5.1-14.1C228.4,70.1,242.9,66.8,248,79z"/>
							</g>
						</g>
					</g>
				</g>
				<g>
					<g>
						<path class="st64" d="M243.7,108c0,0-7.2,8.5-5.3,13.2c0,0-5.8-9-6.7-14.4C231.8,106.8,238.7,108.4,243.7,108z"/>
					</g>
				</g>
				<g>
					<g>
						<path class="st55" d="M238,77.2c0,0-0.9,5.6-3.8,8.4c-1.8,1.6,1.9,4.3,3,5.3c1.1,1.1,2.9,3.1,0.9,5.2
							c-3.1,3.1-1.6,6.9,5.7,11.9c0,0-9.4-0.3-12-1.2c0,0-4.5-8.8,0.1-30.1C231.9,76.7,234.5,76.9,238,77.2z"/>
					</g>
				</g>
				<g>
					<g>
						<g>
							<g>
								<path class="st34" d="M221.4,65.5c-1,0.8-2.4,1.6-3.2,2.4c-15.7,15.2-5.7,36.1-1,44.9c8.9,16.4,31.4,20.9,31.4,20.9
									c-29-28.4-16.4-58-16.4-58L221.4,65.5z"/>
							</g>
						</g>
					</g>
				</g>
				<g>
					<g>
						<path class="st65" d="M231.9,76.7c0,0-3.6,17.7-1.1,26.3c0,0-4.2-10.3-3.1-15.5c0,0-2.7,6.7-1.3,10.5c0,0-2.4-7.7-1.9-12
							c0,0-2.8,3.2-2.8,8.9c0,5.6-1.6-7.8,0-12.1c0,0-4.7,4.4-4.7,9.6c0,0-0.9-6.1,2.7-12.1c0,0-5.2,3.5-5.2,12.5
							c0,0-1.4-9.8,2.1-15.8c0,0-9.8,11-5,22.6c0,0-8.3-21.8,9.8-34.1C221.3,65.5,231.9,68.8,231.9,76.7z"/>
					</g>
				</g>
				<g>
					<g>
						<path class="st59" d="M248.7,195.6c0,0,5.3,8.2,16.9,3.4c0,0-0.9-1.8-3-11.4L248.7,195.6z"/>
					</g>
				</g>
				<g>
					<g>
						<path class="st59" d="M250.7,186.5c0,0-4.6,24.1-38.1,20.1c0,0,2.4-15.9,10.8-23.9C226.2,180,250.7,186.5,250.7,186.5z"/>
					</g>
				</g>
				<g>
					<g>
						<g>
							<g>
								<path class="st62" d="M231.7,78.5c0,0,15.2,0.1,20.9,5.7l3.4,2.1c0,0,1.5-12.9-15-21.6c0,0-15.4-4.3-23.5,3.7
									c0,0,6,2.8,7.8,4.1C227,73.7,231.7,78.5,231.7,78.5z"/>
							</g>
						</g>
					</g>
				</g>
				<g>
					<g>
						<path class="st36" d="M220.2,66.2c0,0,16.7-10.8,31.2,6c0,0,4.6,6.5,4.5,11.8c0,0-5.4-10.8-9.2-12.5c0,0,3.1,3.4,3.4,7.2
							c0,0-7.3-9.2-11.2-9.2c0,0,2.7,3.3,3.8,6.9c0,0-9.1-7-10.9-6.3c0,0,4.4,2.7,4.4,6.3c0,0-3.2-3.9-7.4-4.9
							C228.8,71.5,225,67.7,220.2,66.2z"/>
					</g>
				</g>
				<g>
					<path class="st33" d="M259.2,192.7c0,0,9,2.6,10.5,1.6s9.3-5.3,10.2-8.8c0,0,1-2.6-2.1-3l-10.5,2.5c0,0-1.5,0,0.3-1.2
						c0,0,6.3-2.9,6.5-3.9c0.2-1.1-1.1-1-7.7,1.5l-6.4,3C259.9,184.3,256.5,189,259.2,192.7z"/>
					<path class="st31" d="M269.6,194.3c1.5-1,9.3-5.3,10.2-8.8c0,0,0.5-1.3-0.4-2.2c-2.1,2.4-5.4,5.7-8.2,7.1
						c-3.5,1.8-10.2-0.1-13.2-1.2c0,1.2,0.2,2.4,1,3.5C259.2,192.7,268.1,195.3,269.6,194.3z"/>
					<path class="st66" d="M207.6,128.8c0,0-6.4,2.9,0.1,25.1l12,34.8c0,0,1.5,9.6,13,9.9l29.8-3.7c0,0-2.5-3.6-2.7-5
						c-0.3-1.7,0.8-6.6,0.8-6.6l-29-1.5c0,0,0.7-23.7-6.5-39.2C225,142.7,217.2,120.4,207.6,128.8z"/>
					<path class="st56" d="M262.4,195l-29.8,3.7c-11.5-0.4-13-9.9-13-9.9l-12-34.8c-6.5-22.2-0.1-25.1-0.1-25.1
						c2.8-2.9,5.2-1.8,5.2-1.8c-2.9,5-5.8,11.1,1.5,33.1c5.7,17.5,9.1,32.3,13.8,34c3.8,1.4,23.6-1.9,31.8-3.4
						C260.6,192.4,262.4,195,262.4,195z"/>
					<path class="st57" d="M225,142.7c7.2,15.5,6.5,39.2,6.5,39.2l29,1.5c0,0-0.2,0.8-0.4,1.9c-6.8,0.5-26.3,1.9-30.9,0.2
						c-5.6-2.1-3.5-15.5-4.8-24.2c-1.2-7.7-6-27.2-7.1-31.7C222,134,225,142.7,225,142.7z"/>
				</g>
			</g>
		</g>
	</g>
</g>
<g>
	<path class="st5" d="M32.4,466v7.5h-2.6V468H19.1v7.2h-2.5V468H6v5.5H3.3V466h13.3v-1.9H4.5v-2.2h26.7v2.2H19.1v1.9H32.4z
		 M7.9,486.6v2.2H5.3v-12.6h25.4v7.5l2.6,0.2c-0.4,6.7-0.7,7-5.4,7.3c-1.5,0.1-3.1,0.1-4.4,0.1c-1.4,0-2.5,0-3.9-0.1
		c-2.8-0.2-3.1-0.6-3.1-4.2v-0.4H7.9z M7.7,469.4h7.1v1.8H7.7V469.4z M7.7,472.8h7.1v1.8H7.7V472.8z M16.6,478.1H7.9v2.3h8.7V478.1z
		 M7.9,482.2v2.5h8.7v-2.5H7.9z M28.2,480.4v-2.3h-9v2.3H28.2z M19.1,484.7h9v-2.5h-9V484.7z M20.7,489c1.2,0.1,2.1,0.1,3.3,0.1
		c1.1,0,2.3,0,3.7-0.1c2.1-0.1,2.6-0.2,2.8-2.4H19.1C19.1,488.9,19.2,488.9,20.7,489z M20.8,469.4H28v1.8h-7.1V469.4z M20.8,472.8
		H28v1.8h-7.1V472.8z"/>
	<path class="st5" d="M41,462.4h22.2v2.3c-2.9,3-5.8,5.4-9.3,7.8v2.7h13.3v2.4H53.8v8.7c0,3.9-0.4,4.3-4.1,4.3
		c-1.3,0-3.1-0.1-5.3-0.2l-0.1-2.3c2.2,0.1,3.8,0.2,4.9,0.2c1.8,0,1.9-0.1,1.9-2v-8.7H36.6v-2.4h14.6v-4.1h0.7c3-1.9,5.6-4,8.1-6.4
		H41V462.4z"/>
	<path class="st5" d="M101,463.1v2.1h-6.9c-0.7,1.3-1.5,2.6-2.4,3.7h8.1v17.8c0,3.9-0.4,4.3-4,4.3c-0.9,0-2.3-0.1-4.8-0.2l-0.1-2.2
		c2.4,0.1,3.6,0.2,4.3,0.2c1.9,0,2,0,2-2v-9.1c-1.9,0.1-3.8,0.1-5.7,0.1c-3.4,0-4.1-0.4-4.1-3.2v-3.6h-3.9c0,4.2-1.9,6.6-8.2,9.1
		l-0.9-1.3v12.4h-2.6V469h7.5c-0.5-1.3-1.2-2.5-1.8-3.7h-6.9v-2.1h13.9v-2.9h2.6v2.9H101z M74.5,471.1v7c5.4-2.1,6.6-3.7,6.6-7H74.5
		z M81.2,489.7h-2.5v-10.5H93v9H81.2V489.7z M91.3,465.2H80.5c0.6,1.2,1.2,2.5,1.7,3.7h6.5C89.7,467.8,90.5,466.6,91.3,465.2z
		 M90.5,486.1v-5h-9.3v5H90.5z M97.2,471.1h-7.3v2.9c0,1.7,0,1.8,2.7,1.8c1.5,0,3.1,0,4.7-0.1V471.1z"/>
	<path class="st5" d="M108,491.2h-2.7v-14.4h13v14.4h-2.6v-1.5H108V491.2z M115.7,478.9H108v8.7h7.7V478.9z M109.8,474.2V462h20.1
		v12.2h-17.3H109.8z M127.2,464.2h-14.6v8h14.6V464.2z M124,491.2h-2.6v-14.4h13v14.4h-2.7v-1.5H124V491.2z M131.7,478.9H124v8.7
		h7.7V478.9z"/>
	<path class="st5" d="M139.4,483.3l-1-2.4c2.7-1.3,5.1-3.1,7.1-5.1h-6.8v-2.2h8.7c0.9-1.2,1.7-2.5,2.4-3.9H140v-2.3h5
		c-1-1.7-1.9-3.3-2.9-4.7l2.3-0.8c1.2,1.7,2.3,3.6,3.4,5.6h3.1c0.8-2.1,1.3-4.3,1.6-6.7l2.7,0.1c-0.3,2.3-0.8,4.5-1.5,6.6h6.1
		c1.2-1.9,2.3-3.8,3.2-5.6l2.4,0.7c-0.7,1.6-1.7,3.2-2.7,4.9h5.2v2.3h-9.5c0.7,1.4,1.5,2.7,2.3,3.9h8.4v2.2h-6.5
		c1.9,2.1,4.2,3.8,6.8,5.1l-1.1,2.4c-1.6-0.9-3.1-1.9-4.5-3l-0.1-0.1c-0.1,9.6-1.3,10.7-5.3,10.7c-1.1,0-2.9-0.1-5.2-0.2l0-2.3
		c2,0.1,3.7,0.2,4.8,0.2c2.1,0,3-0.6,3-7.3h-7.9c-1.7,5.1-5.4,8.4-11.2,10.1l-1.2-2c5.3-1.6,8.4-4.1,9.8-8.1h-5.9V480
		c-0.1,0.1-0.2,0.2-0.3,0.3C142.8,481.4,141.2,482.4,139.4,483.3z M145.6,479.2h16.9c-1.2-1.1-2.2-2.2-3.2-3.5h-10.4
		C147.9,477,146.8,478.1,145.6,479.2z M157.7,473.5c-0.8-1.2-1.5-2.5-2.1-3.9h-2.9c-0.6,1.4-1.3,2.7-2.1,3.9H157.7z"/>
	<path class="st5" d="M199.8,476.3c0-5.7-4.2-9.9-10.2-10.1c-2,18.3-5.8,22.2-9.6,22.2c-3.1,0-6.6-4.2-6.6-10.2
		c0-8.5,6.4-14.4,15.7-14.4c7.5,0,13,5.2,13,12.5c0,7.6-4.1,12.5-10.6,13l-0.5-2.4C196.5,486.4,199.8,482.5,199.8,476.3z M176,478.2
		c0,4.6,2.4,7.7,4.1,7.7c1.9,0,5.2-3.3,7-19.6C180.3,467.2,176,471.8,176,478.2z"/>
	<path class="st5" d="M209.7,490.6l0-2.3c2.8,0.2,5.8,0.3,7.2,0.3c1.8,0,2.3-0.3,3.2-8.7h-9.7c-0.2,1-0.4,1.9-0.6,2.9l-2.5-0.2
		c0.8-4.1,1.3-8.1,1.7-12.5h11v-5.5h-12.1v-2.2h14.8v10h-11.2c-0.2,1.9-0.4,3.7-0.6,5.4h12.1l-0.1,1.5c-1,10.7-1.8,11.8-5.1,11.8
		C216,490.9,212.7,490.8,209.7,490.6z M231.4,461.4h2.7v29.7h-2.7V461.4z"/>
	<path class="st5" d="M248.2,491.4l-0.7-2.2c5.7-1,9.5-3.6,10.5-6.2h-10.6v-2.2h2.4v-10.2c-0.4,0.3-0.7,0.6-1.1,0.8l-1-2.3h-1.5v8
		c0.9-0.4,1.8-0.8,2.6-1.2l0.4,2.3c-0.9,0.5-1.9,1-3,1.4v7.4c0,3.8-0.3,4.3-3,4.3c-0.6,0-1.6-0.1-2.9-0.2l-0.1-2.2
		c1.3,0.1,2.2,0.2,2.6,0.2c0.8,0,0.8,0,0.8-2v-6.6c-1.1,0.4-2.3,0.7-3.4,1l-0.3-2.4c1.3-0.3,2.5-0.7,3.7-1.1V469H240v-2.3h3.6v-5.6
		h2.5v5.6h2.9v1.1c2.5-2.3,4.6-5.1,5.7-7.9l2.5,0.4c-0.2,0.6-0.5,1.3-0.8,1.9h9.6v2.1c-0.6,0.9-1.4,2-2.2,3h6.4v13.4h1.6v2.2h-10.6
		c1.1,2.5,4.9,5.2,10.5,6.2l-0.7,2.2c-5.2-1-9.4-3.7-11.3-6.6C257.7,487.6,253.5,490.4,248.2,491.4z M260.8,477.9v2.8h6.9v-3.1h-3.4
		c-3,0-3.6-0.5-3.6-3.8v-4.2h-2.2c-0.1,5.4-1.1,7.3-5.2,10.1l-1.2-1.9v3h6.1v-2.8H260.8z M256.2,469.5h-4v7.8
		C255.4,475.3,256.2,473.7,256.2,469.5z M263.2,464.4h-7.9c-0.6,1-1.4,2-2.2,3h7.7C261.6,466.4,262.4,465.4,263.2,464.4z
		 M267.8,469.5h-4.6v3.5c0,2.3,0.1,2.4,2.4,2.4h2.2V469.5z"/>
	<path class="st5" d="M296.3,490.9l-0.1-2.2c1.3,0.1,2.7,0.2,3.5,0.2c1.3,0,2-1.8,2-8.2v-0.1h-1.7c-1.9,4-5.8,8.7-9.7,11.2l-1.6-1.7
		c3.3-2.1,6.9-6,8.8-9.5H294c-2.4,3.4-6.7,7.2-10.6,9.3l-1.4-1.7c3.3-1.7,6.9-4.7,9.2-7.5h-3.7c-1,0.7-1.9,1.5-2.9,2l0.3,1.6
		c-3.7,1.7-7.1,3-10.5,3.9l-0.4-2.2c1.3-0.3,2.5-0.7,3.8-1.1v-12.8h-3.6v-2.2h3.6v-8h2.6v8h3.9v2.2h-3.9v11.9
		c1.1-0.4,2.1-0.8,3.2-1.3l-1-1.4c2-1,4.2-2.7,5.9-4.5h-4.6v-2.1h21.4v2.1h-13.8c-0.5,0.6-1.1,1.2-1.7,1.8h14.6v1.6
		c0,8.6-1.2,10.9-3.8,10.9C299.4,491.1,297.9,491,296.3,490.9z M303.5,462v11h-15.1h-2.5v-11H303.5z M300.8,466.5v-2.4h-12.4v2.4
		H300.8z M288.4,471h12.4v-2.5h-12.4V471z"/>
	<path class="st5" d="M323.1,468.1v11.6h-9.9c-0.1,5.1-1,8.7-2.4,11.7l-2.3-1.3c1.6-3.3,2.2-6.8,2.2-13.3v-8.6H323.1z M309,462.5
		h14.9v2.3H309V462.5z M320.7,477.4v-7.1h-7.5v7.1H320.7z M339.4,471.4v2.4h-3.8v17.3H333v-17.3h-5.2c-0.6,8.5-2.3,12.8-5.7,16.8
		l-2-1.6c4-4.8,5.5-9.9,5.5-25.4c4.8-0.4,8.9-1.2,12.2-2.4l0.7,2.3c-2.8,1-6.4,1.7-10.4,2.2c0,2.1-0.1,3.9-0.1,5.6H339.4z"/>
	<path class="st5" d="M343.4,464.9c8.9,0,18.4-0.2,27.5-0.7l0.1,2.4c-11.8,1.1-17.7,6-17.7,12.5c0,5.5,3.8,8.8,9.6,8.8
		c1.4,0,2.8-0.1,4.2-0.4l0.3,2.4c-1.5,0.3-3.1,0.4-4.7,0.4c-7.5,0-12.3-4.1-12.3-10.9c0-5.5,3.6-10,10.1-12.4l0-0.1
		c-5.9,0.2-11.8,0.4-17.2,0.4V464.9z M365.5,471.2c1.1,1.7,2.2,3.7,3.2,5.6l-2,1c-1-1.8-2.1-3.8-3.1-5.5L365.5,471.2z M370.3,469.9
		c1.1,1.8,2.3,3.8,3.3,5.7l-2.1,1c-1-1.8-2.1-3.8-3.2-5.6L370.3,469.9z"/>
	<path class="st5" d="M377.6,474.7h14.2v-0.5v-6.6c-3.1,0.3-6.5,0.5-10.7,0.5v-2.4c9.1,0,14.8-0.8,21.2-3l0.7,2.3
		c-2.9,1-5.6,1.7-8.6,2.1v7v0.5h11.7v2.4h-11.8c-0.6,7.8-4,11.5-11.2,12.9l-0.7-2.3c6-1.2,8.6-4.1,9.2-10.6h-14.1V474.7z"/>
	<path class="st5" d="M422.1,467.7l1,5.7l13.8-2.9l0.5,2.3c-0.7,3.9-3.1,7.8-6,10.2l-1.8-1.7c2.5-2,4.4-5,5.2-7.9l-11.1,2.3l2.5,14
		l-2.6,0.5l-2.5-14l-6.7,1.4l-0.5-2.3l6.8-1.4l-1.1-5.8L422.1,467.7z"/>
	<path class="st5" d="M446,475h27.7v2.6H446V475z"/>
	<path class="st5" d="M481.4,471.8c3.3,0.6,6.4,1.1,11,2.1l-0.5,2.4c-4.7-0.9-7.7-1.5-11-2.1L481.4,471.8z M505.3,467.9l2.5,0.4
		c-2.5,14.1-9.8,20.3-25.1,21.6l-0.4-2.5C496.7,486.2,503,480.9,505.3,467.9z M482.8,463.4c4,0.6,7.5,1.3,11.6,2.1l-0.5,2.4
		c-4-0.8-7.6-1.4-11.6-2.1L482.8,463.4z M502.1,460.6c1,1.6,2,3.4,2.9,5.1l-1.9,1c-0.8-1.6-1.9-3.5-2.9-5L502.1,460.6z M506.8,460
		c1,1.6,2,3.5,2.9,5.2l-1.9,1c-0.9-1.7-1.9-3.5-2.9-5.1L506.8,460z"/>
	<path class="st5" d="M514.2,468.1h6.6c0.5-2.4,1.1-4.8,1.5-7.2l2.4,0.3c-0.4,2.3-0.9,4.6-1.4,6.9h2.9c7.2,0,7.4,0.2,7.4,8.7
		c0,8.8-2.4,12.8-5.3,12.8c-1.6,0-4.4-0.7-6.9-1.8l0.8-2.3c2.9,1.2,4.6,1.6,5.6,1.6c1.4,0,3.2-3.2,3.2-10.6c0-6.1,0-6.1-4.3-6.1
		h-3.9c-1.7,6.7-3.9,13.3-6.7,19.5l-2.3-0.9c2.6-5.8,4.8-12.1,6.5-18.6h-6.1V468.1z M534.8,462.3c1.1,1.7,2.2,3.7,3.2,5.6l-2,1
		c-1-1.8-2.1-3.8-3.2-5.5L534.8,462.3z M535.5,470.9l2.3-1c2,3.9,4.3,8.9,5.7,12.9l-2.3,0.8C539.7,479.8,537.5,474.8,535.5,470.9z
		 M539.5,460.9c1.1,1.8,2.3,3.8,3.3,5.7l-2.1,1c-1-1.8-2.1-3.8-3.2-5.6L539.5,460.9z"/>
	<path class="st5" d="M547.4,464.9c8.9,0,18.4-0.2,27.5-0.7l0.1,2.4c-11.8,1.1-17.7,6-17.7,12.5c0,5.5,3.8,8.8,9.6,8.8
		c1.4,0,2.8-0.1,4.2-0.4l0.3,2.4c-1.5,0.3-3.1,0.4-4.7,0.4c-7.5,0-12.3-4.1-12.3-10.9c0-5.5,3.6-10,10.1-12.4l0-0.1
		c-5.9,0.2-11.8,0.4-17.2,0.4V464.9z M569.5,471.2c1.1,1.7,2.2,3.7,3.2,5.6l-2,1c-1-1.8-2.1-3.8-3.1-5.5L569.5,471.2z M574.3,469.9
		c1.1,1.8,2.3,3.8,3.3,5.7l-2.1,1c-1-1.8-2.1-3.8-3.2-5.6L574.3,469.9z"/>
	<path class="st5" d="M596.6,461.3l2.5-0.1c0.1,1.4,0.3,2.8,0.5,4.1c3-0.1,5.9-0.2,9-0.4l0.1,2.2c-2.9,0.1-5.8,0.3-8.7,0.4
		c0.3,1.5,0.7,2.9,1.2,4.3c2.8-0.1,5.5-0.2,8.2-0.3l0.1,2.1c-2.4,0.1-4.9,0.2-7.4,0.3c0.9,2,2,4,3.4,6.1l-2.3,1.6
		c-3.3-1.5-6.1-2.2-8.9-2.2c-4.9,0-6.9,1.4-6.9,3.8c0,3.2,2.7,4.8,9.7,4.8c2.4,0,5.2-0.2,7.9-0.7l0.3,2.2c-2.7,0.4-5.5,0.7-8.2,0.7
		c-8.5,0-12.4-2.4-12.4-7c0-3.1,2.4-5.9,9.6-5.9c2.2,0,5.1,0.6,7.4,1.5l0-0.1c-0.9-1.6-1.6-3.1-2.2-4.6c-5.7,0.2-11.5,0.3-17,0.3
		V472c5.3,0,10.7-0.1,16.2-0.2c-0.5-1.4-0.9-2.9-1.2-4.3c-4.7,0.1-9.3,0.2-13.8,0.2v-2.2c4.4,0,8.8-0.1,13.4-0.2
		C596.8,464.1,596.6,462.7,596.6,461.3z"/>
	<path class="st5" d="M633.5,465.2h9.3v2.3h-9.3v4.5h8.2v2.3h-8.2v6.9c2.5,1.4,5.3,3.4,8.5,6.2l-1.6,1.8c-2.6-2.3-4.9-4.1-7-5.3
		c-0.3,4.6-2.4,6.4-7.3,6.4c-4.5,0-7.2-2.2-7.2-5.9c0-2.6,1.5-5.4,7.2-5.4c1.5,0,3.1,0.3,4.9,1.1v-5.7h-12.9V472H631v-4.5h-14v-2.3
		h14v-3.8h2.5V465.2z M626.4,481.2c-3,0-4.9,0.9-4.9,3.1c0,2.2,1.8,3.6,4.7,3.6c3.7,0,4.9-1.3,4.9-5.2v-0.3
		C629.2,481.6,627.7,481.2,626.4,481.2z"/>
	<path class="st5" d="M666.6,465.3v-4.4h2.5v4.4h9.3v2.1h-9.3v7.6c0.3,1.1,0.6,2.8,0.6,4.2c0,6.7-3.4,10.1-11.5,11.2l-0.4-2.4
		c6.5-0.8,9.2-3.3,9.5-7.4v-0.4h-0.1c-1,1.4-2.9,2.3-5.2,2.3c-3.7,0-6.6-2.8-6.6-6.5s2.9-6.5,6.6-6.5c1.8,0,3.2,0.5,4.5,1.5h0.1
		v-3.7h-17.2v-2.1H666.6z M662.4,480.3c2.5,0,4.4-1.9,4.4-4.2s-1.9-4.2-4.4-4.2c-2.5,0-4.4,1.8-4.4,4.2S659.9,480.3,662.4,480.3z"/>
	<path class="st5" d="M688.2,480.8c2.9,0,5.2,2.3,5.2,5.2s-2.3,5.2-5.2,5.2s-5.2-2.3-5.2-5.2S685.3,480.8,688.2,480.8z M688.2,489.2
		c1.8,0,3.2-1.4,3.2-3.2s-1.4-3.2-3.2-3.2c-1.8,0-3.2,1.4-3.2,3.2S686.4,489.2,688.2,489.2z"/>
</g>
</svg>
