<?xml version="1.0" encoding="utf-8"?>
<!-- Generator: Adobe Illustrator 26.2.1, SVG Export Plug-In . SVG Version: 6.00 Build 0)  -->
<svg version="1.1" id="レイヤー_1" xmlns="http://www.w3.org/2000/svg" xmlns:xlink="http://www.w3.org/1999/xlink" x="0px"
	 y="0px" viewBox="0 0 696.7 495.7" style="enable-background:new 0 0 696.7 495.7;" xml:space="preserve">
<style type="text/css">
	.st0{clip-path:url(#SVGID_00000114039406164963422740000013743283259293766840_);}
	.st1{enable-background:new    ;}
	.st2{fill:#127616;}
	.st3{fill:#0C5210;}
	.st4{fill:#148419;}
	.st5{fill:#787878;}
	.st6{fill:#545454;}
	.st7{fill:#868686;}
	.st8{fill:#14AF26;}
	.st9{fill:#0EA124;}
	.st10{fill:#17991D;}
	.st11{fill:#2BBF3C;}
	.st12{fill:#A0F9A6;}
	.st13{fill:#121212;}
	.st14{fill:#222222;}
	.st15{fill:#FFFFFF;}
	.st16{fill:#898989;}
	.st17{fill:#B91901;}
	.st18{fill:#085613;}
	.st19{fill:#222421;}
	.st20{fill:#1D282D;}
	.st21{fill:#212E33;}
	.st22{fill:#2B2D29;}
	.st23{fill:#001211;}
	.st24{opacity:0.57;}
	.st25{fill-rule:evenodd;clip-rule:evenodd;fill:#03252B;}
	.st26{fill:#042C30;}
	.st27{fill:#151614;}
	.st28{fill:#D7D5D6;}
	.st29{fill:#EF676A;}
	.st30{fill:#E8A476;}
	.st31{fill:#DB9669;}
	.st32{fill:#F1B287;}
	.st33{fill:#3F210A;}
	.st34{fill-rule:evenodd;clip-rule:evenodd;fill:#361D07;}
	.st35{fill-rule:evenodd;clip-rule:evenodd;fill:#301808;}
	.st36{fill:#4F2B0C;}
	.st37{fill:#4C260C;}
	.st38{fill:#E9F6FA;}
	.st39{fill:#DAEDF2;}
	.st40{opacity:0.1;fill:#FFFFFF;}
	.st41{fill-rule:evenodd;clip-rule:evenodd;fill:#EF676A;}
	.st42{fill:#D8555B;}
	.st43{fill:#70AFE9;}
	.st44{fill:#63A4D6;}
	.st45{fill:#22292B;}
	.st46{fill:#F1B488;}
	.st47{fill:#2E383B;}
	.st48{fill-rule:evenodd;clip-rule:evenodd;fill:#2E383A;}
	.st49{fill:#212B2D;}
	.st50{fill:#3C4548;}
	.st51{fill:#2E383A;}
	.st52{fill:#DBDCDE;}
	.st53{fill-rule:evenodd;clip-rule:evenodd;fill:#F1B287;}
	.st54{fill-rule:evenodd;clip-rule:evenodd;fill:#E8A476;}
	.st55{fill:#BFBEBE;}
	.st56{fill:#EDEFEF;}
	.st57{fill:#F0F1F2;}
	.st58{fill:#629D1B;}
	.st59{opacity:0.1;}
	.st60{fill:#F7FCFC;}
	.st61{fill:#3F2212;}
	.st62{fill:#F2B387;}
	.st63{fill-rule:evenodd;clip-rule:evenodd;fill:#DB9669;}
	.st64{fill-rule:evenodd;clip-rule:evenodd;fill:#4F2B0C;}
	.st65{fill:#D6D6D6;}
	.st66{clip-path:url(#SVGID_00000142165661775596741580000010945485884708631974_);}
	.st67{fill:#F1AE80;}
	.st68{fill:#F4BE91;}
	.st69{fill:#F6CBA7;}
	.st70{opacity:0.1;fill:#42210B;}
	.st71{fill:#E66D6F;}
	.st72{fill:none;}
	.st73{fill:#ED999A;}
	.st74{fill:#4F3D32;}
	.st75{fill:#D1A049;}
	.st76{fill:#DDB877;}
	.st77{fill:#C6891C;}
	.st78{fill:#4B555B;}
	.st79{fill:#D2466F;}
	.st80{clip-path:url(#SVGID_00000150784723579074480980000006644681175886292126_);}
	.st81{fill:#EFB289;}
	.st82{opacity:0.2;fill:#EFB289;}
	.st83{fill:#E78549;}
	.st84{fill:#101010;}
	.st85{fill:#D1E0F5;}
	.st86{fill:#85C243;}
	.st87{fill:#54A600;}
	.st88{opacity:0.3;fill:#D1E0F5;}
	.st89{fill:#C6D9F2;}
	.st90{fill:#9877C4;}
	.st91{fill:#EA955F;}
	.st92{fill:#0D4AC3;}
	.st93{fill:#78A1E2;}
	.st94{fill:#5689D9;}
	.st95{fill:#3771D0;}
</style>
<g>
	<g>
		<defs>
			<circle id="SVGID_00000072965519323361523280000002359012821193901989_" cx="349.3" cy="238.6" r="238.6"/>
		</defs>
		<use xlink:href="#SVGID_00000072965519323361523280000002359012821193901989_"  style="overflow:visible;fill:#F5DBE7;"/>
		<clipPath id="SVGID_00000159440947497566340240000011496960229199505082_">
			<use xlink:href="#SVGID_00000072965519323361523280000002359012821193901989_"  style="overflow:visible;"/>
		</clipPath>
		<g style="clip-path:url(#SVGID_00000159440947497566340240000011496960229199505082_);">
			<g>
				<path class="st67" d="M296.9,95.9c0,0-20,14.6-26.1,18.2c-6.1,3.6-11.9,6.3-13.1,8c-1.2,1.7-20.6,24.4-30.5,33
					c0,0,0.2,10.3,11.1,6.1c10.9-4.2,20.5-15.6,24.8-22.5C263,138.7,301.5,107.3,296.9,95.9z"/>
				<path class="st67" d="M300.5,89.6c0,0-16.4,9-19.2,9.9c-2.9,1-8.7,1.9-10.6,3.5c-1.9,1.7-10.4,8.3-35.3,18.6
					c0,0-1.2,9.3,7.2,8.9c8.3-0.4,14.7-3.7,14.7-3.7S300.1,101.4,300.5,89.6z"/>
				<path class="st68" d="M432.1,40.1l-16.1,3.1c0,0-5.8,0.1-10.7,0.4c-4.9,0.3-8.8,8.8-15,10.4c-6.2,1.6-84.2,26.6-89.7,35.7
					c-5.6,9.1-10.7,22.1-26.5,35.9c-15.7,13.8-12.3,14.5-12.9,22.3c-0.6,7.9-3.8,37-3.8,37s23.3,8.7,17.5-20.2
					c0,0,4.9-10.5,6.1-20.6c0,0,21.4-16.6,25.6-23.2c0,0-2.1,16.9-6.6,24.3c-4.5,7.4-1.3,14,1,17.4c2.2,3.4,8.4,8.8,11.1,13.8
					c2.8,5,5.3,9.4,7.9,10.5c2.6,1.1,28.7,10.8,28.7,10.8s6.5-6.1-0.4-13.9c-7-7.8-16.6-9.1-16.6-9.1s-6.3-13.7-12.8-18.1
					c0,0,9.5-15.6,10.4-21.4c0,0,9.4-4.7,14.1-14.8c0,0,18.5,10.3,18.5,22.7c0,12.5-11.1,35-9.3,46.6c1.9,11.6,6.4,13.2,10,11.6
					c3.6-1.6,9-20.5,12.3-26.8c3.4-6.4,8.6-24.7,15.5-29c6.9-4.3,28.2-7.2,33.4-47.6c0,0,12.7-7.7,24.8-7.8L432.1,40.1z"/>
				<path class="st69" d="M258.8,171.6c0,0,3.9,2,4.4,5.7c0.5,3.8-1.9,8.7-1.9,8.7l-3.9-1.2L258.8,171.6z"/>
			</g>
			<path class="st69" d="M350.6,194.8c0,0-10-10.6-13.2-1.4l11.3,4.2L350.6,194.8z"/>
			<path class="st69" d="M368.9,189.5c0,0-3.9-1.4-7,2.3c-3.1,3.7-0.7,9.9-0.7,9.9S364.3,201.5,368.9,189.5z"/>
			<path class="st70" d="M475.9,419.8c0,8.5-56.4,15.3-126,15.3c-69.6,0-126-6.9-126-15.3c0-8.5,56.4-15.3,126-15.3
				C419.5,404.5,475.9,411.3,475.9,419.8z"/>
			<g>
				<path class="st71" d="M398.2,229.7c0,0,31.9-13.4,49.1-7.2c17.2,6.1,6.7,10.4-0.1,18.4c-6.8,7.9-16.4,22-16.4,22L398.2,229.7z"
					/>
				<g>
					<path class="st72" d="M246.3,238.9c-4,2.9-7.9,9.5-2.9,13.4c5.4,4.2,11.2-0.7,12.6-6.2c0.7-3,0.4-6.2-0.6-9.1
						C252.2,236.6,249,237,246.3,238.9z"/>
					<path class="st73" d="M470.5,284.5c-2.6-6.3-13.6-5.2-21.9-7.6c-4.9-12.5-12.5-23.8-22.1-33.3c2.7-4.7,6-10.3,8.9-14.5
						c5.9-8.6,15.8-14-1.9-18.3c-13.3-3.2-33.8,5.4-43.1,9.9c-12-4.5-25.1-7-38.8-7c-31,0-58.8,12.6-77.7,32.6
						c-0.1-0.3-0.2-0.6-0.3-0.9c-2.4-6.2-8.3-9.5-14.3-11.5c-0.4-0.1-0.7-0.2-1.1-0.3c-2.2-5-6.2-9.4-11.4-10.9
						c-6-1.8-13.5,1.3-17.5,5.9c-1.6,1.8,1,4.4,2.6,2.6c3.2-3.6,7.8-5.3,12.5-5.1c4.2,0.1,7.3,3.7,9.4,7c-5.3,0-10.6,2.3-13.7,6.9
						c-3.3,4.9-3.6,12.2,2,15.7c4.9,3.1,11.4,2,14.9-2.8c3.3-4.5,3.9-9.8,2.7-15c1.4,0.5,2.7,1.1,3.9,1.7c4.4,2.2,6.5,5.9,7.3,10
						c-14,16.3-22.4,36.9-22.4,59.3c0,31.3,16.4,59.1,41.7,76.5c4.1,12.5,0.2,29.4,7.9,29.8c9.3,0.5,35.3,0,38.9,0
						c2.1,0,5.2-6.3,7.3-11.3c2.5,0.2,4.9,0.2,7.4,0.2c2.5,0,5-0.1,7.4-0.2c2.1,5,5.1,11.3,7.3,11.3c3.6,0,29.5,0.5,38.9,0
						c7.7-0.4,3.8-17.3,7.9-29.8c17.3-11.9,30.4-28.6,37-48.1c5.4-3.9,11.3-7.4,13.7-9.5c4-3.5,7.7-15.3,5.3-22.6
						C466.4,298.2,473.5,291.9,470.5,284.5z M256,246.1c-1.3,5.5-7.2,10.4-12.6,6.2c-5-4-1-10.6,2.9-13.4c2.7-2,5.9-2.3,9.1-1.9
						C256.4,240,256.7,243.2,256,246.1z"/>
				</g>
				<path class="st74" d="M336.7,415.4c0.9,0,1.9-1.1,3-2.7c-1.8-4.9-6.5-8.4-12.1-8.4c-5.3,0-9.8,3.2-11.8,7.7
					c-2-4.6-6.5-7.7-11.8-7.7c-4.5,0-8.4,2.3-10.7,5.7c0.7,3.1,2,5.2,4.6,5.3C307.2,415.9,333.1,415.4,336.7,415.4z"/>
				<path class="st74" d="M366.2,415.4c-0.9,0-1.9-1.1-3-2.7c1.8-4.9,6.5-8.4,12.1-8.4c5.3,0,9.8,3.2,11.8,7.7
					c2-4.6,6.5-7.7,11.8-7.7c4.5,0,8.4,2.3,10.7,5.7c-0.7,3.1-2,5.2-4.6,5.3C395.7,415.9,369.8,415.4,366.2,415.4z"/>
				<g>
					<path class="st15" d="M444.6,273.9c0,3.5-2.8,6.3-6.3,6.3c-3.5,0-6.3-2.8-6.3-6.3c0-3.5,2.8-6.3,6.3-6.3
						C441.8,267.6,444.6,270.4,444.6,273.9z"/>
					<circle class="st74" cx="440.7" cy="273.9" r="2.5"/>
				</g>
				<g>
					
						<ellipse transform="matrix(1.189880e-02 -0.9999 0.9999 1.189880e-02 172.4794 717.3528)" class="st15" cx="449.2" cy="271.4" rx="6.3" ry="6.3"/>
					<path class="st74" d="M454.1,271.4c0,1.4-1.1,2.5-2.5,2.5c-1.4,0-2.5-1.1-2.5-2.5c0-1.4,1.1-2.5,2.5-2.5
						C452.9,268.9,454.1,270,454.1,271.4z"/>
				</g>
				<path class="st74" d="M456.2,292.2c-0.7,4.2-0.1,7.9,1.4,8.1c1.5,0.3,3.3-3,4-7.2c0.7-4.2,0.1-7.9-1.4-8.1
					C458.7,284.8,456.9,288,456.2,292.2z"/>
				<path class="st74" d="M463.9,292.2c-0.7,4.2-0.1,7.9,1.4,8.1c1.5,0.3,3.3-3,4-7.2c0.7-4.2,0.1-7.9-1.4-8.1
					C466.4,284.8,464.6,288,463.9,292.2z"/>
			</g>
			<path class="st74" d="M372.2,222.6c-0.4,1.3-1.8,2.1-3.1,1.8c-12.6-3-25.7-3-38.3,0c-1.4,0.3-2.8-0.5-3.1-1.8l0,0
				c-0.4-1.3,0.5-2.8,2-3.1c13.4-3.2,27.3-3.2,40.6,0C371.7,219.9,372.6,221.3,372.2,222.6L372.2,222.6z"/>
			<g>
				<path class="st75" d="M351.3,227.2l0,1.7c1.2-0.1,2.4-0.3,3.6-0.6l-0.6-1.6C353.4,226.9,352.4,227.1,351.3,227.2z"/>
				<path class="st75" d="M354.3,190.6l0.6-1.6c-1.2-0.3-2.4-0.5-3.6-0.6v1.7C352.4,190.2,353.4,190.4,354.3,190.6z"/>
				<path class="st75" d="M367.6,203.7l1.7-0.3c-0.3-1.2-0.7-2.3-1.2-3.4l-1.5,0.9C367,201.8,367.3,202.7,367.6,203.7z"/>
				<path class="st75" d="M360.2,193.3l1.1-1.3c-1-0.7-2-1.3-3.2-1.8l-0.6,1.6C358.5,192.2,359.4,192.8,360.2,193.3z"/>
				<path class="st75" d="M364.8,197.9l1.5-0.9c-0.7-1-1.5-1.9-2.3-2.8l-1.1,1.3C363.6,196.3,364.2,197.1,364.8,197.9z"/>
				<path class="st75" d="M357.6,225.5l0.6,1.6c1.1-0.5,2.2-1.1,3.2-1.8l-1.1-1.3C359.4,224.5,358.5,225,357.6,225.5z"/>
				<path class="st75" d="M369.9,206.8l-1.7,0.3c0,0.5,0.1,1,0.1,1.5c0,0.5,0,1-0.1,1.5l1.7,0.3c0.1-0.6,0.1-1.2,0.1-1.8
					C370,208,369.9,207.4,369.9,206.8z"/>
				<path class="st75" d="M347.9,192.3c0.6-0.1,1.1-0.1,1.7-0.1c9.1,0,16.5,7.4,16.5,16.5c0,8.5-6.5,15.5-14.8,16.4v1.6
					c9.1-0.9,16.3-8.6,16.3-18c0-9.9-8.1-18-18-18c-0.6,0-1.2,0-1.7,0.1V192.3L347.9,192.3z"/>
				<path class="st75" d="M366.5,216.4l1.5,0.9c0.5-1.1,0.9-2.2,1.2-3.4l-1.7-0.3C367.3,214.5,367,215.5,366.5,216.4z"/>
				<path class="st75" d="M362.9,221.7l1.1,1.3c0.9-0.9,1.6-1.8,2.3-2.8l-1.5-0.9C364.2,220.2,363.6,221,362.9,221.7z"/>
				<path class="st75" d="M331.7,213.6l-1.7,0.3c0.3,1.2,0.7,2.3,1.2,3.4l1.5-0.9C332.3,215.5,331.9,214.5,331.7,213.6z"/>
				<path class="st75" d="M333.1,208.6c0-8.5,6.5-15.5,14.8-16.4v-1.6c-9.1,0.9-16.3,8.6-16.3,18c0,9.4,7.2,17.1,16.3,18V225
					C339.6,224.2,333.1,217.2,333.1,208.6z"/>
				<path class="st75" d="M331,208.6c0-0.5,0-1,0.1-1.5l-1.7-0.3c-0.1,0.6-0.1,1.2-0.1,1.8c0,0.6,0,1.2,0.1,1.8l1.7-0.3
					C331,209.7,331,209.2,331,208.6z"/>
				<path class="st75" d="M344.9,226.7l-0.6,1.6c1.2,0.3,2.4,0.5,3.6,0.6v-1.7C346.9,227.1,345.9,226.9,344.9,226.7z"/>
				<path class="st75" d="M339,223.9l-1.1,1.3c1,0.7,2,1.3,3.2,1.8l0.6-1.6C340.7,225,339.9,224.5,339,223.9z"/>
				<path class="st75" d="M332.7,200.9l-1.5-0.9c-0.5,1.1-0.9,2.2-1.2,3.4l1.7,0.3C331.9,202.7,332.3,201.8,332.7,200.9z"/>
				<path class="st75" d="M334.4,219.4l-1.5,0.9c0.7,1,1.5,1.9,2.3,2.8l1.1-1.3C335.7,221,335,220.2,334.4,219.4z"/>
				<path class="st75" d="M336.4,195.5l-1.1-1.3c-0.9,0.9-1.6,1.8-2.3,2.8l1.5,0.9C335,197.1,335.7,196.3,336.4,195.5z"/>
				<path class="st75" d="M347.9,190.1v-1.7c-1.2,0.1-2.4,0.3-3.6,0.6l0.6,1.6C345.9,190.4,346.9,190.2,347.9,190.1z"/>
				<path class="st75" d="M341.7,191.8l-0.6-1.6c-1.1,0.5-2.2,1.1-3.2,1.8l1.1,1.3C339.9,192.8,340.7,192.2,341.7,191.8z"/>
				<rect x="351.3" y="188.4" class="st76" width="0" height="1.7"/>
				<polygon class="st76" points="347.9,225 347.9,226.6 347.9,226.6 347.9,225 				"/>
				<polygon class="st76" points="347.9,227.2 347.9,228.9 347.9,228.9 347.9,227.2 				"/>
				<polygon class="st76" points="347.9,192.3 347.9,192.3 347.9,190.7 347.9,190.7 347.9,192.3 				"/>
				<polygon class="st76" points="347.9,190.1 347.9,188.4 347.9,188.4 347.9,190.1 				"/>
				<polygon class="st76" points="351.3,227.2 351.3,228.9 351.3,228.9 351.3,227.2 				"/>
				<path class="st75" d="M351.3,225c-0.6,0.1-1.1,0.1-1.7,0.1c-0.6,0-1.2,0-1.7-0.1v1.6c0.6,0.1,1.1,0.1,1.7,0.1
					c0.6,0,1.2,0,1.7-0.1V225z"/>
				<path class="st77" d="M366.1,208.6c0-9.1-7.4-16.5-16.5-16.5c-0.6,0-1.2,0-1.7,0.1c0,0,0,0,0,0c-8.3,0.9-14.8,7.9-14.8,16.4
					c0,8.5,6.5,15.5,14.8,16.4c0,0,0,0,0,0c0.6,0.1,1.1,0.1,1.7,0.1c0.6,0,1.2,0,1.7-0.1v0C359.6,224.2,366.1,217.2,366.1,208.6z
					 M350.3,218.9v3h-1.5v-3c-1.3,0-3.2-0.1-5-1.7c-1.6-1.4-1.7-2.9-1.7-4.2h3.1c-0.1,1.3,0.7,3.3,3.6,3.3v-7.1
					c-5-1.5-6.3-2.7-6.3-6c0-2.5,1.5-3.9,2.6-4.5c1.4-0.8,3-0.9,3.8-0.9v-2.5h1.5v2.4c1.4,0,6.4,0.2,6.5,5h-3.2
					c-0.1-1.9-1.6-2.4-3.4-2.5v6.3c3.1,0.8,6.9,2,6.9,6.2c0,3-1.9,4.5-2.7,5C353.1,218.7,351.3,218.8,350.3,218.9z"/>
				<path class="st77" d="M350.3,209.7v6.7c2.6,0,3.7-1.7,3.7-3.2C354.1,210.9,351.9,210.2,350.3,209.7z"/>
				<path class="st77" d="M345.4,203.1c0,2,1.9,2.6,3.4,3v-5.9C345.5,200.6,345.4,202.6,345.4,203.1z"/>
				<path class="st77" d="M357.2,212.8c0-4.2-3.8-5.4-6.9-6.2v-6.3c1.8,0.1,3.3,0.6,3.4,2.5h3.2c-0.1-4.7-5.2-4.9-6.5-5v-2.4h-1.5
					v2.5c-0.8,0-2.4,0.1-3.8,0.9c-1.1,0.7-2.6,2-2.6,4.5c0,3.2,1.4,4.5,6.3,6v7.1c-2.9-0.1-3.7-2-3.6-3.3H342c0,1.3,0.1,2.8,1.7,4.2
					c1.8,1.6,3.7,1.7,5,1.7v3h1.5v-3c1.1-0.1,2.8-0.2,4.2-1.1C355.3,217.3,357.2,215.8,357.2,212.8z M348.8,206.1
					c-1.5-0.4-3.4-1-3.4-3c0-0.5,0.1-2.5,3.4-2.8V206.1z M350.3,216.4v-6.7c1.5,0.5,3.7,1.2,3.7,3.5
					C354.1,214.6,353,216.3,350.3,216.4z"/>
				<path class="st77" d="M368.2,208.6c0-0.5,0-1-0.1-1.5l1.7-0.3c-0.1-1.2-0.3-2.3-0.6-3.4l-1.7,0.3c-0.3-1-0.6-1.9-1-2.9l1.5-0.9
					c-0.5-1-1.1-2-1.7-3l-1.5,0.9c-0.6-0.8-1.2-1.6-2-2.3l1.1-1.3c-0.8-0.8-1.7-1.5-2.6-2.2l-1.1,1.3c-0.8-0.6-1.7-1.1-2.6-1.5
					l0.6-1.6c-1-0.5-2.1-0.9-3.2-1.2l-0.6,1.6c-1-0.3-2-0.4-3-0.5l0,0l0-1.7c-0.6,0-1.1-0.1-1.7-0.1c-0.6,0-1.2,0-1.7,0.1v1.7
					c0,0,0,0,0,0c-1,0.1-2,0.3-3,0.5l-0.6-1.6c-1.1,0.3-2.2,0.7-3.2,1.2l0.6,1.6c-0.9,0.4-1.8,1-2.6,1.5l-1.1-1.3
					c-0.9,0.7-1.8,1.4-2.6,2.2l1.1,1.3c-0.7,0.7-1.4,1.5-2,2.3l-1.5-0.9c-0.7,0.9-1.2,1.9-1.7,3l1.5,0.9c-0.4,0.9-0.8,1.9-1,2.9
					l-1.7-0.3c-0.3,1.1-0.5,2.2-0.6,3.4l1.7,0.3c0,0.5-0.1,1-0.1,1.5c0,0.5,0,1,0.1,1.5l-1.7,0.3c0.1,1.2,0.3,2.3,0.6,3.4l1.7-0.3
					c0.3,1,0.6,1.9,1,2.9l-1.5,0.9c0.5,1,1.1,2,1.7,3l1.5-0.9c0.6,0.8,1.2,1.6,2,2.3l-1.1,1.3c0.8,0.8,1.7,1.5,2.6,2.2l1.1-1.3
					c0.8,0.6,1.7,1.1,2.6,1.5l-0.6,1.6c1,0.5,2.1,0.9,3.2,1.2l0.6-1.6c1,0.3,2,0.4,3,0.5c0,0,0,0,0,0l0,1.7c0.6,0,1.1,0.1,1.7,0.1
					c0.6,0,1.2,0,1.7-0.1v-1.7l0,0c1-0.1,2-0.3,3-0.5l0.6,1.6c1.1-0.3,2.2-0.7,3.2-1.2l-0.6-1.6c0.9-0.4,1.8-1,2.6-1.5l1.1,1.3
					c0.9-0.7,1.8-1.4,2.6-2.2l-1.1-1.3c0.7-0.7,1.4-1.5,2-2.3l1.5,0.9c0.7-0.9,1.2-1.9,1.7-3l-1.5-0.9c0.4-0.9,0.8-1.9,1-2.9
					l1.7,0.3c0.3-1.1,0.5-2.2,0.6-3.4l-1.7-0.3C368.2,209.7,368.2,209.2,368.2,208.6z M347.9,226.6
					C347.9,226.6,347.9,226.6,347.9,226.6c-9.1-0.9-16.3-8.6-16.3-18c0-9.4,7.2-17.1,16.3-18c0,0,0,0,0,0c0.6-0.1,1.1-0.1,1.7-0.1
					c9.9,0,18,8.1,18,18c0,9.4-7.2,17.1-16.3,18l0,0c-0.6,0.1-1.1,0.1-1.7,0.1C349,226.7,348.5,226.6,347.9,226.6z"/>
			</g>
			
				<rect x="418.7" y="19.6" transform="matrix(0.9357 -0.3529 0.3529 0.9357 6.2658 160.2336)" class="st15" width="47.9" height="86.6"/>
			<polygon class="st50" points="453,114.3 416.3,16.8 548.1,-33 616.4,-33 616.4,52.9 			"/>
			<g>
				<path class="st15" d="M476.5,89.5c-1.2,3.9-5.3,6-9.2,4.8c-3.9-1.2-6-5.3-4.8-9.2c1.2-3.9,5.3-6,9.2-4.8
					C475.6,81.5,477.7,85.6,476.5,89.5z"/>
				<path class="st78" d="M474.3,88.8c-0.8,2.7-3.7,4.1-6.3,3.3c-2.7-0.8-4.1-3.7-3.3-6.3c0.8-2.7,3.7-4.1,6.3-3.3
					C473.7,83.3,475.2,86.2,474.3,88.8z"/>
			</g>
			<g>
				<path class="st15" d="M497.4,83.1c-1.2,3.9-5.3,6-9.2,4.8c-3.9-1.2-6-5.3-4.8-9.2c1.2-3.9,5.3-6,9.2-4.8
					C496.5,75.1,498.6,79.3,497.4,83.1z"/>
				<path class="st78" d="M495.2,82.4c-0.8,2.7-3.7,4.1-6.3,3.3c-2.7-0.8-4.1-3.7-3.3-6.3c0.8-2.7,3.7-4.1,6.3-3.3
					C494.6,76.9,496.1,79.8,495.2,82.4z"/>
			</g>
			<path class="st73" d="M371.2,224c-0.6,0.4-1.4,0.6-2.2,0.4c-12.6-3-25.7-3-38.3,0c-0.8,0.2-1.6,0-2.2-0.4
				c-18.7,6.5-31.8,21.2-31.8,38.4c0,23.2,23.8,42,53.1,42c29.3,0,53.1-18.8,53.1-42C403,245.2,389.9,230.5,371.2,224z"/>
			<path class="st68" d="M370.8,176.7c-0.5-0.1-1.4-0.2-1.6-0.2c-5-0.5-10.1-0.8-15.1-0.9c-1.3,5.4-2.1,10.4-1.5,14.2
				c1.9,11.6,6.4,13.2,10,11.6c3.2-1.5,7.7-16.3,11.1-24.2C372.7,177,371.7,176.8,370.8,176.7z"/>
			<path class="st69" d="M368.9,189.5c0,0-3.9-1.4-7,2.3c-3.1,3.7-0.7,9.9-0.7,9.9S364.3,201.5,368.9,189.5z"/>
		</g>
	</g>
	<g>
		<path class="st79" d="M88.1,468.1L88.1,468.1l-7.6,6.9l-1.2-2.5l8.7-8.1h3v27.7h-3V468.1z"/>
		<path class="st79" d="M143.5,463.1v26.2c0,4.4-0.5,4.8-4.7,4.8c-1,0-2.8-0.1-6-0.2l-0.1-2.6c3,0.1,4.8,0.2,5.6,0.2
			c2.2,0,2.3-0.1,2.3-2.2v-10.1h-24.5v15.2h-3v-31.3H143.5z M116.1,465.7v11h10.8v-11H116.1z M129.8,476.7h10.8v-11h-10.8V476.7z"/>
		<path class="st79" d="M165.2,460.7c1.3,2,2.4,4.3,3.5,6.7h3.5c1.5-2.2,2.8-4.4,4-6.6l2.7,0.8c-1,1.9-2.1,3.8-3.4,5.7h5.4v15.7h-13
			v3.8h16v2.5h-16v6.2h-3v-6.2h-16V487h16v-3.8h-10.1h-2.9v-15.7h5c-0.9-1.9-1.9-3.6-3-5.2l2.6-1.1c1.2,1.9,2.4,4.1,3.5,6.3h5.8
			c-0.9-2-2-3.9-3-5.6L165.2,460.7z M164.8,474.1v-4.2h-10.1v4.2H164.8z M164.8,476.4h-10.1v4.4h10.1V476.4z M177.9,469.9h-10.1v4.2
			h10.1V469.9z M177.9,480.7v-4.4h-10.1v4.4H177.9z"/>
		<path class="st79" d="M193.7,495.5h-2.9v-19c-1,1.9-2.2,3.7-3.3,5.1l-1.6-2.6c3.8-4.8,6.3-10.6,7.8-17.6l2.7,0.4
			c-0.6,3.5-1.6,6.6-2.8,9.5V495.5z M195.9,491.6h14c2.7-5.8,4.8-13,6.2-20.6l2.9,0.6c-1.3,7.3-3.5,14.3-6,20.1h8.8v2.7h-25.9V491.6
			z M221.2,466v2.6h-24.7V466h10.8v-5.1h3v5.1H221.2z M201.3,471.2c1.6,5.6,3,11.6,4.1,17.4l-2.8,0.5c-1.1-5.7-2.5-11.7-4.1-17.2
			L201.3,471.2z"/>
		<path class="st79" d="M226.2,465.9c9.9,0,20.6-0.3,30.7-0.8l0.2,2.7c-13.1,1.2-19.8,6.7-19.8,14c0,6.2,4.3,9.8,10.8,9.8
			c1.5,0,3.2-0.2,4.7-0.4l0.3,2.7c-1.7,0.3-3.4,0.5-5.2,0.5c-8.4,0-13.8-4.6-13.8-12.2c0-6.2,4.1-11.1,11.3-13.9l0-0.1
			c-6.6,0.3-13.1,0.5-19.3,0.5V465.9z M250.9,472.8c1.2,1.9,2.4,4.1,3.5,6.2l-2.3,1.1c-1.1-2-2.3-4.3-3.5-6.2L250.9,472.8z
			 M256.3,471.4c1.2,2,2.5,4.3,3.6,6.4l-2.3,1.1c-1.1-2-2.4-4.3-3.6-6.3L256.3,471.4z"/>
		<path class="st79" d="M280.2,493.5c-8.9,0-14.3-3.2-14.3-8c0-2.3,1.6-5.2,5.5-9l2.1,1.7c-3.1,3-4.6,5.4-4.6,7.1
			c0,3.3,4.2,5.5,11.4,5.5c3.9,0,9.4-0.7,12.5-1.6l0.6,2.7C290.2,492.8,284.4,493.5,280.2,493.5z M269.3,464.4H291v2.6h-21.7V464.4z
			 M287.9,470.7c1.2,1.9,2.4,4.2,3.5,6.3l-2.3,1.1c-1.1-2-2.3-4.3-3.5-6.2L287.9,470.7z M293.3,469.2c1.2,2,2.5,4.3,3.6,6.3
			l-2.3,1.1c-1.1-2-2.4-4.3-3.6-6.3L293.3,469.2z"/>
		<path class="st79" d="M319,474.9h-6.6c2.4,3.4,4.9,7,7.1,10.2l-2.2,1.7c-1.9-3.1-3.9-6.2-5.9-9.3v18.1h-2.8V479
			c-1.6,4.1-3.7,7.7-6.4,10.9l-1.6-2.4c3.3-3.8,5.7-8.2,7.1-12.7h-6.4v-2.5h7.4v-6.6c-2.2,0.3-4.4,0.5-6.6,0.6l-0.2-2.4
			c5.2-0.4,10.8-1.1,16.3-2.2l0.7,2.3c-2.4,0.5-4.8,0.9-7.3,1.3v7h7.7V474.9z M321.4,463.7h2.8v23.8h-2.8V463.7z M334.3,462.2v28
			c0,4.3-0.5,4.8-4.3,4.8c-1,0-2.7-0.1-5.4-0.2l-0.1-2.7c2.5,0.1,4.1,0.2,5,0.2c1.7,0,1.9-0.1,1.9-2.2v-27.8H334.3z"/>
		<path class="st79" d="M371.6,462.5v27.9c0,4.4-0.5,4.8-4.7,4.8c-0.9,0-2.6-0.1-5.3-0.2l-0.1-2.5c2.6,0.1,4.2,0.2,5,0.2
			c2.1,0,2.2-0.1,2.2-2.2v-7h-10.5v11h-2.8v-11h-9.9c-0.5,5.2-1.9,8.7-4.3,12l-2.4-1.9c3-4.2,4.1-8.5,4.1-17.1v-14.1H371.6z
			 M345.7,473.9v3.7c0,1.3,0,2.4-0.1,3.5h9.7v-7.2H345.7z M355.3,464.9h-9.6v6.6h9.6V464.9z M368.7,471.6v-6.6h-10.5v6.6H368.7z
			 M358.1,481.1h10.5v-7.2h-10.5V481.1z"/>
		<path class="st79" d="M382.7,478.9c0,7.1,3.2,11.7,5.3,11.7c1.4,0,4.3-2.9,6.8-9.4l2.7,1c-2.6,7.4-6.7,11.3-9.6,11.3
			c-3.7,0-8-6.2-8-14.6c0-4.3,0.6-9.4,1.7-13l2.8,0.4C383.3,469.9,382.7,474.9,382.7,478.9z M404.6,465.7c3.4,6.3,5.3,15,5.3,23.8
			H407c0-8.3-1.8-16.8-5-22.9L404.6,465.7z"/>
		<path class="st79" d="M417.5,466.5h6.3c0.3-1.7,0.6-3.3,0.9-5l2.8,0.3c-0.3,1.6-0.5,3.2-0.8,4.7h13.8v2.5h-14.3
			c-1.8,8.8-4.2,17.4-7,25.1l-2.8-0.7c2.8-7.6,5.1-15.9,6.9-24.4h-5.8V466.5z M447.6,492.6c-2.8,0.5-5.5,0.8-8,0.8
			c-6.6,0-10.9-2.6-10.9-6.3c0-1.8,1.3-3.8,4.3-5.9l1.8,1.7c-2.4,1.7-3.2,2.8-3.2,3.9c0,2.3,3.2,4,8.1,4c2.3,0,4.9-0.3,7.7-0.8
			L447.6,492.6z M431.7,477.1l-0.2-2.5c5.1-0.7,10.1-1,15.3-1v2.5C441.6,476.1,436.7,476.5,431.7,477.1z"/>
		<path class="st79" d="M455.1,466.9h6.3c0.3-1.7,0.6-3.3,0.9-5l2.8,0.3c-0.3,1.6-0.5,3.2-0.8,4.7h13.3v2.5h-13.8
			c-1.8,8.8-4.2,17.4-7,25.1l-2.8-0.7c2.8-7.6,5.1-15.9,6.9-24.4h-5.8V466.9z M477.2,493.7c-6.6,0-10.9-2.6-10.9-6.3
			c0-1.8,1.3-3.8,4.3-5.9l1.8,1.7c-2.4,1.7-3.2,2.8-3.2,3.9c0,2.3,3.2,4,8.1,4c2.3,0,4.9-0.3,7.7-0.8l0.3,2.5
			C482.4,493.5,479.7,493.7,477.2,493.7z M484.4,474v2.5c-5.2,0-10.1,0.3-15.1,1l-0.2-2.5C474.2,474.3,479.1,474,484.4,474z
			 M479.4,461.1c1.1,1.8,2.2,3.8,3.2,5.7l-2.1,1.1c-1-1.8-2.1-3.8-3.2-5.6L479.4,461.1z M484.6,460.5c1.1,1.8,2.2,3.8,3.3,5.8
			l-2.2,1.1c-1-1.9-2.1-4-3.2-5.7L484.6,460.5z"/>
		<path class="st79" d="M496.4,478.5c0,5.6,0.5,10.2,1.8,15.1l-2.8,0.4c-1.3-5.1-1.9-9.7-1.9-15.5s0.6-10.4,1.9-15.5l2.8,0.4
			C497,468.3,496.4,472.9,496.4,478.5z M516.2,470.1v-7.4h2.8v7.4h6.2v2.5H519v5.7c0,10.6-2,13.5-10.3,15.7l-0.9-2.5
			c7-1.9,8.4-3.3,8.4-13.2v-5.7h-12.9v-2.5H516.2z"/>
		<path class="st79" d="M550.4,466.1h10.4v2.5h-10.4v5.1h9.1v2.5h-9.1v7.7c2.8,1.5,6,3.8,9.5,6.9l-1.8,2c-2.9-2.6-5.5-4.6-7.8-6
			c-0.3,5.2-2.7,7.2-8.2,7.2c-5,0-8.1-2.5-8.1-6.6c0-2.9,1.7-6,8.1-6c1.7,0,3.5,0.4,5.4,1.2v-6.4h-14.4v-2.5h14.4v-5.1h-15.7v-2.5
			h15.7v-4.3h2.8V466.1z M542.4,484c-3.3,0-5.5,1-5.5,3.5c0,2.5,2,4,5.2,4c4.1,0,5.4-1.4,5.4-5.8v-0.3
			C545.6,484.5,543.9,484,542.4,484z"/>
		<path class="st79" d="M587.4,466.3v-4.9h2.8v4.9h10.4v2.4h-10.4v8.5c0.4,1.2,0.7,3.2,0.7,4.7c0,7.5-3.8,11.3-12.8,12.5l-0.4-2.7
			c7.2-0.9,10.3-3.6,10.6-8.3v-0.5h-0.1c-1.1,1.6-3.2,2.5-5.8,2.5c-4.2,0-7.4-3.1-7.4-7.2c0-4.1,3.2-7.2,7.4-7.2
			c2.1,0,3.5,0.5,5,1.7h0.1v-4.1h-19.3v-2.4H587.4z M582.7,483c2.8,0,4.9-2.1,4.9-4.7c0-2.6-2.1-4.7-4.9-4.7c-2.8,0-4.9,2.1-4.9,4.7
			C577.8,480.9,579.9,483,582.7,483z"/>
		<path class="st79" d="M611.5,483.6c3.2,0,5.8,2.6,5.8,5.8s-2.6,5.9-5.8,5.9s-5.9-2.6-5.9-5.9S608.3,483.6,611.5,483.6z
			 M611.5,492.9c2,0,3.5-1.6,3.5-3.6s-1.6-3.5-3.5-3.5c-2,0-3.6,1.6-3.6,3.5S609.5,492.9,611.5,492.9z"/>
	</g>
</g>
</svg>
