<?xml version="1.0" encoding="utf-8"?>
<!-- Generator: Adobe Illustrator 26.2.1, SVG Export Plug-In . SVG Version: 6.00 Build 0)  -->
<svg version="1.1" id="レイヤー_1" xmlns="http://www.w3.org/2000/svg" xmlns:xlink="http://www.w3.org/1999/xlink" x="0px"
	 y="0px" viewBox="0 0 696.7 496.5" style="enable-background:new 0 0 696.7 496.5;" xml:space="preserve">
<style type="text/css">
	.st0{clip-path:url(#SVGID_00000128448766705175140540000013890353806012442020_);}
	.st1{enable-background:new    ;}
	.st2{fill:#127616;}
	.st3{fill:#0C5210;}
	.st4{fill:#148419;}
	.st5{fill:#787878;}
	.st6{fill:#545454;}
	.st7{fill:#868686;}
	.st8{fill:#14AF26;}
	.st9{fill:#0EA124;}
	.st10{fill:#17991D;}
	.st11{fill:#2BBF3C;}
	.st12{fill:#A0F9A6;}
	.st13{fill:#121212;}
	.st14{fill:#222222;}
	.st15{fill:#FFFFFF;}
	.st16{fill:#898989;}
	.st17{fill:#B91901;}
	.st18{fill:#085613;}
	.st19{fill:#222421;}
	.st20{fill:#1D282D;}
	.st21{fill:#212E33;}
	.st22{fill:#2B2D29;}
	.st23{fill:#001211;}
	.st24{opacity:0.57;}
	.st25{fill-rule:evenodd;clip-rule:evenodd;fill:#03252B;}
	.st26{fill:#042C30;}
	.st27{fill:#151614;}
	.st28{fill:#D7D5D6;}
	.st29{fill:#EF676A;}
	.st30{fill:#E8A476;}
	.st31{fill:#DB9669;}
	.st32{fill:#F1B287;}
	.st33{fill:#3F210A;}
	.st34{fill-rule:evenodd;clip-rule:evenodd;fill:#361D07;}
	.st35{fill-rule:evenodd;clip-rule:evenodd;fill:#301808;}
	.st36{fill:#4F2B0C;}
	.st37{fill:#4C260C;}
	.st38{fill:#E9F6FA;}
	.st39{fill:#DAEDF2;}
	.st40{opacity:0.1;fill:#FFFFFF;}
	.st41{fill-rule:evenodd;clip-rule:evenodd;fill:#EF676A;}
	.st42{fill:#D8555B;}
	.st43{fill:#70AFE9;}
	.st44{fill:#63A4D6;}
	.st45{fill:#22292B;}
	.st46{fill:#F1B488;}
	.st47{fill:#2E383B;}
	.st48{fill-rule:evenodd;clip-rule:evenodd;fill:#2E383A;}
	.st49{fill:#212B2D;}
	.st50{fill:#3C4548;}
	.st51{fill:#2E383A;}
	.st52{fill:#DBDCDE;}
	.st53{fill-rule:evenodd;clip-rule:evenodd;fill:#F1B287;}
	.st54{fill-rule:evenodd;clip-rule:evenodd;fill:#E8A476;}
	.st55{fill:#BFBEBE;}
	.st56{fill:#EDEFEF;}
	.st57{fill:#F0F1F2;}
	.st58{fill:#629D1B;}
	.st59{opacity:0.1;}
	.st60{fill:#F7FCFC;}
	.st61{fill:#3F2212;}
	.st62{fill:#F2B387;}
	.st63{fill-rule:evenodd;clip-rule:evenodd;fill:#DB9669;}
	.st64{fill-rule:evenodd;clip-rule:evenodd;fill:#4F2B0C;}
	.st65{fill:#D6D6D6;}
	.st66{clip-path:url(#SVGID_00000157998724339201677580000002624959314021927603_);}
	.st67{fill:#F1AE80;}
	.st68{fill:#F4BE91;}
	.st69{fill:#F6CBA7;}
	.st70{opacity:0.1;fill:#42210B;}
	.st71{fill:#E66D6F;}
	.st72{fill:none;}
	.st73{fill:#ED999A;}
	.st74{fill:#4F3D32;}
	.st75{fill:#D1A049;}
	.st76{fill:#DDB877;}
	.st77{fill:#C6891C;}
	.st78{fill:#4B555B;}
	.st79{fill:#D2466F;}
	.st80{clip-path:url(#SVGID_00000005945579503549229630000011083523926200623795_);}
	.st81{fill:#EFB289;}
	.st82{opacity:0.2;fill:#EFB289;}
	.st83{fill:#E78549;}
	.st84{fill:#101010;}
	.st85{fill:#D1E0F5;}
	.st86{fill:#85C243;}
	.st87{fill:#54A600;}
	.st88{opacity:0.3;fill:#D1E0F5;}
	.st89{fill:#C6D9F2;}
	.st90{fill:#9877C4;}
	.st91{fill:#EA955F;}
	.st92{fill:#0D4AC3;}
	.st93{fill:#78A1E2;}
	.st94{fill:#5689D9;}
	.st95{fill:#3771D0;}
</style>
<g>
	<g>
		<defs>
			<circle id="SVGID_00000141446372126673435180000000114936265321565111_" cx="348.3" cy="238.6" r="238.6"/>
		</defs>
		<use xlink:href="#SVGID_00000141446372126673435180000000114936265321565111_"  style="overflow:visible;fill:#D1E0F5;"/>
		<clipPath id="SVGID_00000129179140350577651500000001665617181243896458_">
			<use xlink:href="#SVGID_00000141446372126673435180000000114936265321565111_"  style="overflow:visible;"/>
		</clipPath>
		<g style="clip-path:url(#SVGID_00000129179140350577651500000001665617181243896458_);">
			<g>
				<path class="st81" d="M150.1,457.8H260l9.1-24.5c3.2-8.7,9.8-15.7,18.3-19.5c8-3.6,18.7-10.1,29.1-21.8
					c20.2-22.7,30.9-47,30.9-47l-68.1-0.3c0,0,6.1-38.1-27.7-88.7c-3.6-5.4-5.3-11.9-4.7-18.4l3.2-36.9c0,0,23-25.7,8.9-57.6
					c0,0-13.5-18.7-18.9-11.8c0,0-40.8,97.1-44.5,111.5c-3.7,14.4-8.7,23.5-3.7,68.9c1.3,12,1.8,22,1.8,30.3
					c0,15.8-3.6,31.4-10.3,45.7L150.1,457.8z"/>
				<path class="st82" d="M252.6,394.8c-10.2-11.3-24.4-9.5-39.3-14.7c-14.9-5.2-19.7-42.4-19.7-42.4l0,0c0,1.4,0,2.8,0,4.1
					c0,15.8-3.6,31.4-10.3,45.7l-33.3,70.3H260l9.1-24.5c3.2-8.7,9.8-15.7,18.3-19.5c6.8-3.1,15.5-8.3,24.4-16.9
					C281.6,409.6,262.8,406.2,252.6,394.8z"/>
				<g>
					<path class="st83" d="M408.9,66.4c0,0,23.3-15.6,28.6-5.3c5.3,10.3-30.2,46.6-30.2,46.6L408.9,66.4z"/>
					<path class="st83" d="M408.9,134.3c0,0,23.3-15.6,28.6-5.3c5.3,10.3-30.2,46.6-30.2,46.6L408.9,134.3z"/>
					<path class="st83" d="M408.9,180.5c0,0,23.3-15.6,28.6-5.3c5.3,10.3-30.2,46.6-30.2,46.6L408.9,180.5z"/>
				</g>
				<path class="st84" d="M392.8,48.9H265c-9.5,0-17.2,7.7-17.2,17.2v212.7v48.5c0,9.6,7.8,17.2,17.2,17.2h127.8
					c9.5,0,17.2-7.7,17.2-17.2V114.7V66.2C410,56.6,402.2,48.9,392.8,48.9z"/>
				<path class="st82" d="M259.4,268.6c0,0-23.1,56.6-20.9,67.3c2.2,10.7,16.3,25,50.7,20.2c34.4-4.8,58.2-11.1,58.2-11.1
					s1.4-76.4,0-80.2c-1.4-3.9-63.3-31.4-65.8-31.4C279.2,233.3,259.4,268.6,259.4,268.6z"/>
				<rect x="256.1" y="72.4" class="st15" width="145.6" height="248.7"/>
				<g>
					<path class="st85" d="M364.7,242.1h-71.6c-5,0-9-4-9-9v-94.8c0-5,4-9,9-9h71.6c5,0,9,4,9,9V233
						C373.8,238,369.7,242.1,364.7,242.1z"/>
					<g>
						<path class="st86" d="M297.7,174.9l7.1,34.1c0.3,1.5,1.6,2.5,3.1,2.5h42c1.5,0,2.7-1.1,3.1-2.5l7.1-34.1H297.7z M310.3,208.2
							c-1,0-1.7-0.8-1.7-1.7l-2.4-24.2c0-1,0.8-1.7,1.7-1.7c1,0,1.7,0.8,1.7,1.7l2.4,24.2C312,207.5,311.2,208.2,310.3,208.2z
							 M318.9,208.2L318.9,208.2c-1,0-1.7-0.8-1.7-1.7l-1-24.2c0-1,0.8-1.7,1.7-1.7c1,0,1.7,0.8,1.7,1.7l1,24.2
							C320.6,207.5,319.9,208.2,318.9,208.2z M330.6,206.5c0,1-0.8,1.7-1.7,1.7c-1,0-1.7-0.8-1.7-1.7v-24.2c0-1,0.8-1.7,1.7-1.7
							c1,0,1.7,0.8,1.7,1.7V206.5z M340.6,206.5c0,1-0.8,1.7-1.7,1.7s-1.7-0.8-1.7-1.7l1-24.2c0-1,0.8-1.7,1.7-1.7
							c1,0,1.7,0.8,1.7,1.7L340.6,206.5z M349.3,206.5c0,1-0.8,1.7-1.7,1.7s-1.7-0.8-1.7-1.7l2.4-24.2c0-1,0.8-1.7,1.7-1.7
							c1,0,1.7,0.8,1.7,1.7L349.3,206.5z"/>
						<path class="st87" d="M360.5,177.6h-63.2c-1.5,0-2.8-1.2-2.8-2.8l0,0c0-1.5,1.2-2.8,2.8-2.8h63.2c1.5,0,2.8,1.2,2.8,2.8l0,0
							C363.3,176.4,362.1,177.6,360.5,177.6z"/>
						<path class="st86" d="M310.6,172.3V170c0-4,3.2-7.2,7.2-7.2h22.3c4,0,7.2,3.2,7.2,7.2v2.4c0,0.9,0.7,1.5,1.5,1.5l0,0
							c0.9,0,1.5-0.7,1.5-1.5V170c0-5.7-4.6-10.3-10.3-10.3h-22.3c-5.7,0-10.3,4.6-10.3,10.3v2.4c0,0.9,0.7,1.5,1.5,1.5l0,0
							C309.9,173.9,310.6,173.2,310.6,172.3z"/>
					</g>
				</g>
				<path class="st15" d="M358.9,64.6h-59.8c-0.7,0-1.3-0.6-1.3-1.3v-0.6c0-0.7,0.6-1.3,1.3-1.3h59.8c0.7,0,1.3,0.6,1.3,1.3v0.6
					C360.2,64,359.6,64.6,358.9,64.6z"/>
				<path class="st81" d="M244.9,222.9c0,0,0.9,3.3,2.9,4.9l2.4-27.1c0,0,16.9-18.9,12.8-44.4c-1.4-8.7-5.7-16.8-12.4-22.6
					c-3.8-3.3-8-5.6-10.4-2.4c0,0-19.2,45.7-32.4,79L244.9,222.9z"/>
				<g>
					<path class="st88" d="M336,333.1c0,3.9-3.2,7.1-7.1,7.1c-3.9,0-7.1-3.2-7.1-7.1s3.2-7.1,7.1-7.1C332.8,326,336,329.2,336,333.1
						z"/>
					<g>
						<path class="st85" d="M331,336.1h-4.3c-0.5,0-0.8-0.4-0.8-0.8V331c0-0.5,0.4-0.8,0.8-0.8h4.3c0.5,0,0.8,0.4,0.8,0.8v4.3
							C331.8,335.7,331.4,336.1,331,336.1z M326.7,330.4c-0.3,0-0.6,0.3-0.6,0.6v4.3c0,0.3,0.3,0.6,0.6,0.6h4.3
							c0.3,0,0.6-0.3,0.6-0.6V331c0-0.3-0.3-0.6-0.6-0.6H326.7z"/>
					</g>
				</g>
				<rect x="256.1" y="306.4" class="st89" width="145.6" height="14.7"/>
				<rect x="256.1" y="72.4" class="st89" width="145.6" height="13.2"/>
				<path class="st83" d="M243.6,157.9c5.3-2.4,8.1-16.2,9.1-22.4c-4.3-4.3-9.6-8.1-12.5-4.4c0,0-4.2,10.1-10.1,24.2
					C234.1,157.5,239.6,159.8,243.6,157.9z"/>
				<path class="st84" d="M181.8,393c11.6,7.1,49.1,28.5,87.8,33.1c2.3,0.3,3.9,2.3,3.2,4.1l-6.8,18.1c-0.4,1.2-1.8,1.9-3.3,1.7
					c-11.4-1.4-58.5-8.5-91.6-34.1c-1.1-0.9-1.6-2.2-1.2-3.3l6.9-18.5C177.5,392.4,179.9,391.8,181.8,393z"/>
				<path d="M178.4,410.3l-0.1,0c-0.7-0.3-1-1-0.8-1.7l2.1-5.6c0.3-0.7,1-1,1.7-0.8l0.1,0c0.7,0.3,1,1,0.8,1.7l-2.1,5.6
					C179.8,410.2,179.1,410.5,178.4,410.3z"/>
				<path d="M185.4,414.6l-0.1,0c-0.7-0.3-1-1-0.8-1.7l2.1-5.6c0.3-0.7,1-1,1.7-0.8l0.1,0c0.7,0.3,1,1,0.8,1.7l-2.1,5.6
					C186.8,414.5,186,414.8,185.4,414.6z"/>
				<path d="M192.3,418.8l-0.1,0c-0.7-0.3-1-1-0.8-1.7l2.1-5.6c0.3-0.7,1-1,1.7-0.8l0.1,0c0.7,0.3,1,1,0.8,1.7l-2.1,5.6
					C193.8,418.8,193,419.1,192.3,418.8z"/>
				<path d="M199.5,422.3l-0.1,0c-0.7-0.3-1-1-0.8-1.7l2.1-5.6c0.3-0.7,1-1,1.7-0.8l0.1,0c0.7,0.3,1,1,0.8,1.7l-2.1,5.6
					C200.9,422.2,200.2,422.6,199.5,422.3z"/>
				<path d="M206.6,426.3l-0.1,0c-0.7-0.3-1-1-0.8-1.7l2.1-5.6c0.3-0.7,1-1,1.7-0.8l0.1,0c0.7,0.3,1,1,0.8,1.7l-2.1,5.6
					C208,426.2,207.2,426.6,206.6,426.3z"/>
				<path d="M213.9,429.5l-0.1,0c-0.7-0.3-1-1-0.8-1.7l2.1-5.6c0.3-0.7,1-1,1.7-0.8l0.1,0c0.7,0.3,1,1,0.8,1.7l-2.1,5.6
					C215.4,429.4,214.6,429.8,213.9,429.5z"/>
				<path d="M221.5,432.3l-0.1,0c-0.7-0.3-1-1-0.8-1.7l2.1-5.6c0.3-0.7,1-1,1.7-0.8l0.1,0c0.7,0.3,1,1,0.8,1.7l-2.1,5.6
					C222.9,432.3,222.1,432.6,221.5,432.3z"/>
				<path d="M229.1,434.8l-0.1,0c-0.7-0.3-1-1-0.8-1.7l2.1-5.6c0.3-0.7,1-1,1.7-0.8l0.1,0c0.7,0.3,1,1,0.8,1.7l-2.1,5.6
					C230.6,434.7,229.8,435,229.1,434.8z"/>
				<path d="M237.1,436.3l-0.1,0c-0.7-0.3-1-1-0.8-1.7l2.1-5.6c0.3-0.7,1-1,1.7-0.8l0.1,0c0.7,0.3,1,1,0.8,1.7l-2.1,5.6
					C238.5,436.3,237.8,436.6,237.1,436.3z"/>
				<path d="M244.9,438.5l-0.1,0c-0.7-0.3-1-1-0.8-1.7l2.1-5.6c0.3-0.7,1-1,1.7-0.8l0.1,0c0.7,0.3,1,1,0.8,1.7l-2.1,5.6
					C246.3,438.4,245.5,438.7,244.9,438.5z"/>
				<path d="M252.9,439.8l-0.1,0c-0.7-0.3-1-1-0.8-1.7l2.1-5.6c0.3-0.7,1-1,1.7-0.8l0.1,0c0.7,0.3,1,1,0.8,1.7l-2.1,5.6
					C254.4,439.8,253.6,440.1,252.9,439.8z"/>
				<path d="M261,441.2l-0.1,0c-0.7-0.3-1-1-0.8-1.7l2.1-5.6c0.3-0.7,1-1,1.7-0.8l0.1,0c0.7,0.3,1,1,0.8,1.7l-2.1,5.6
					C262.4,441.1,261.7,441.4,261,441.2z"/>
				<path class="st90" d="M204.8,434.9L204.8,434.9c-0.1-0.1-0.2-0.1-0.3-0.2l-9.2-3.4c-0.9-0.3-1.3-1.4-1-2.4l8.3-22.1
					c0.4-1,1.4-1.5,2.3-1.2l9.2,3.4c0.5,0.2,0.9,0.7,1,1.2c0.7,0.3,1.4,0.6,2.2,0.9c0.2-1.9-0.7-3.7-2.4-4.3l-9.2-3.4
					c-2-0.7-4.3,0.4-5.1,2.6l-8.3,22.1c-0.8,2.2,0.2,4.5,2.2,5.3l9.2,3.4c1.4,0.5,2.9,0.1,4-0.9
					C206.6,435.7,205.7,435.3,204.8,434.9z"/>
				<path class="st15" d="M202.8,417.4l-4-1.5c-0.7-0.3-1.5,0.1-1.8,0.9c-0.3,0.8,0.1,1.6,0.8,1.9l4,1.5L202.8,417.4z"/>
				<g>
					<path class="st91" d="M377.1,236.2c0,0-19.7,1.6-20.3,6.9c-0.7,5.2,0.8,14.4,19.4,16.2h19.2c0,0-5.8-15.9-5.5-16.5
						C390.1,242.3,377.1,236.2,377.1,236.2z"/>
					<path class="st81" d="M345.5,314.2c-2.7,1.4-3.6,4.8-2.1,7.4c9,15.6,45,77.6,48.3,82.7c3.7,5.8,12.8,19.4,42.9,26.4
						c30.1,7,42.5,27.2,42.5,27.2h92.8c0,0-21.9-34.6-40-124.6c0,0-14-74.7-40.4-72.2c0,0-16.1-16.9-31.8-13.6
						c0,0-29.7-17.7-46.6-17.7l-40.6-48c-4-4.8-11.1-5.7-16-1.9c-1.6,1.2-2.8,2.8-3.1,4.9c-1.2,7.8,9.1,27.6,25.6,51.6
						c16.5,23.9,57.3,99.8,39.6,133.2c0,0-18.1-13.6-33.8-35.5C369.5,315.8,354.1,309.6,345.5,314.2z"/>
					<path class="st83" d="M411.2,229.7c5.4,4.6,10.4,9.6,15.2,14.9c6.4,7,14.6,17.4,19.4,25.4c6,9.9,10,18.6,11.9,29.6l-0.1,0
						c-2.2-10.3-7.8-21.3-12.7-29c-3.7-6-10.5-15.5-19.1-25.4C421.4,240.3,415.9,234.4,411.2,229.7L411.2,229.7z"/>
					<path class="st83" d="M457.4,247.3c4.4,2.2,8.3,5.4,11.8,8.9c3.5,3.5,6.4,7.5,8.9,11.9c2.4,4.3,4.3,9,5.6,13.8
						c1.1,4.5,1.8,7.5,1.9,14.6l-0.1,0c-0.4-4.9-1.3-9.7-2.7-14.4c-1.4-4.5-3.3-9.4-5.7-13.4c-2.4-4.3-5.3-8.2-8.5-11.8
						c-3.1-3.4-7.2-7.1-11.1-9.5L457.4,247.3z"/>
					<path class="st83" d="M489.1,260.7c3.9,2.9,7.8,8.1,9.7,11.6c2.4,4.1,4.3,8.9,5.5,14.1c0.9,3.3,1.1,6.6,1.3,10l-0.1,0
						c-0.6-3.3-0.9-5.8-2.1-9.8c-1.8-6.1-3.2-9.2-5.6-13.8C496.4,270,492.6,264.3,489.1,260.7L489.1,260.7z"/>
					<path class="st83" d="M364.3,333.4c0.8-4.2-4-10.8-8.5-15.8c-2.8-3.1-7.1-4.3-10.9-3c-2.1,1.6-2.8,4.6-1.4,7
						c2.4,4.2,6.8,11.7,12,20.6C359.3,340.2,363.5,337.2,364.3,333.4z"/>
					<path class="st83" d="M368.2,200.6c2.3-0.5,13-4,12.3-6l0,0L370,182.2c-2.1-2.5-5-3.9-8-4.2l0,0h0c0,0,0,0,0,0
						c-0.1,0-0.3,0-0.5,0c-1.4,0-4.9,0.4-5.6,4.2c-0.8,3.8,5.5,12.9,8.2,16.7C364.9,200.2,366.6,200.9,368.2,200.6z"/>
					<path class="st82" d="M477.1,457.8h92.8c0,0-14.3-22.7-29.4-79.1c-6.6,41.5-43.2,39.1-57.7,41.4c-16.7,2.7-81.5-10.9-90.6-15.1
						c4,6.2,13.6,18.9,42.4,25.6C464.7,437.6,477.1,457.8,477.1,457.8z"/>
					<path class="st82" d="M381.8,243.9c18.2,29.2,50.8,96.4,34.7,125.7l10.7,10.6c0,0,27.1-30-16-96.2
						C401.1,268.6,391.2,255.2,381.8,243.9z"/>
				</g>
				<g>
					<g>
						<g>
							<path class="st92" d="M352.2,122h-0.1c-6.4,0-11.6-5.2-11.6-11.6v-8.7h23.2v8.7C363.8,116.8,358.6,122,352.2,122z"/>
							<path class="st93" d="M329,122h-0.1c-6.4,0-11.6-5.2-11.6-11.6v-8.7h23.2v8.7C340.5,116.8,335.4,122,329,122z"/>
							<path class="st92" d="M305.8,122h-0.1c-6.4,0-11.6-5.2-11.6-11.6v-8.7h23.2v8.7C317.3,116.8,312.2,122,305.8,122z"/>
							<path class="st93" d="M282.6,122h-0.1c-6.4,0-11.6-5.2-11.6-11.6v-8.7h23.2v8.7C294.1,116.8,288.9,122,282.6,122z"/>
							<path class="st92" d="M259.3,122h-0.1c-6.4,0-11.6-5.2-11.6-11.6v-8.7h23.2v8.7C270.9,116.8,265.7,122,259.3,122z"/>
							<path class="st93" d="M421.8,122h-0.1c-6.4,0-11.6-5.2-11.6-11.6v-8.7h23.2v8.7C433.4,116.8,428.2,122,421.8,122z"/>
							<path class="st92" d="M398.6,122h-0.1c-6.4,0-11.6-5.2-11.6-11.6v-8.7h23.2v8.7C410.2,116.8,405,122,398.6,122z"/>
							<path class="st93" d="M375.4,122h-0.1c-6.4,0-11.6-5.2-11.6-11.6v-8.7H387v8.7C387,116.8,381.8,122,375.4,122z"/>
							<path class="st93" d="M236.1,122H236c-6.4,0-11.6-5.2-11.6-11.6v-8.7h23.2v8.7C247.7,116.8,242.5,122,236.1,122z"/>
						</g>
						<g>
							<polygon class="st85" points="337.2,72.4 320.7,72.4 317.3,101.8 340.5,101.8 							"/>
							<polygon class="st94" points="320.7,72.4 304.2,72.4 294.1,101.8 317.3,101.8 							"/>
							<polygon class="st85" points="304.2,72.4 287.7,72.4 270.9,101.8 294.1,101.8 							"/>
							<polygon class="st94" points="287.7,72.4 271.1,72.4 247.7,101.8 270.9,101.8 							"/>
							<polygon class="st85" points="271.1,72.4 254.6,72.4 224.4,101.8 247.7,101.8 							"/>
							<polygon class="st85" points="403.1,72.4 386.6,72.4 410.2,101.8 433.4,101.8 							"/>
							<polygon class="st94" points="386.7,72.4 370.2,72.4 386.9,101.8 410.2,101.8 							"/>
							<polygon class="st85" points="370.2,72.4 353.7,72.4 363.8,101.8 387,101.8 							"/>
							<polygon class="st94" points="353.7,72.4 337.2,72.4 340.5,101.8 363.8,101.8 							"/>
						</g>
					</g>
				</g>
				<g>
					<path class="st95" d="M373.8,283.1H284c-4.9,0-8.9-4-8.9-8.9v-2.6c0-4.9,4-8.9,8.9-8.9h89.9c4.9,0,8.9,4,8.9,8.9v2.6
						C382.7,279.1,378.7,283.1,373.8,283.1z"/>
				</g>
			</g>
		</g>
	</g>
	<g>
		<path class="st92" d="M118,466.2h23.6v2.7c-1.7,4.3-4.6,8.5-8.2,12.4c4.1,3.8,7.9,7.6,11.3,11.2l-2.1,2
			c-3.5-3.7-7.2-7.4-11.2-11.2c-4.3,4.1-9.5,7.8-15.3,10.7l-1.3-2.4c11.4-5.9,19.7-13.9,23.6-22.7H118V466.2z"/>
		<path class="st92" d="M152.7,466.4h30v2.7c-1.9,6.8-7.8,13.4-15.8,17.4c1.6,2.4,3.3,4.8,5,7.4l-2.6,1.6
			c-4.1-6.3-7.8-11.5-11.8-16.8l2.5-1.7c1.7,2.3,3.4,4.6,5.1,7c6.8-3.3,12.7-9.3,14.4-14.9h-26.9V466.4z"/>
		<path class="st92" d="M198.5,477.5c-1.8,4.1-4.1,8.9-6.5,13.1l-2.6-1.2c2.3-4.1,4.6-8.7,6.4-12.9L198.5,477.5z M204.7,468.7v-5.5
			h3v5.5h13.6v2.7h-13.6v18.8c0,3.9-0.6,4.6-4.3,4.6c-1.7,0-4-0.2-6-0.5l0.3-2.6c1.8,0.3,3.7,0.4,5.1,0.4c1.7,0,1.8-0.1,1.8-2.2
			v-18.5h-14.3v-2.7H204.7z M215.8,476.4c2.1,4,4.5,8.9,6.5,13.4l-2.7,1.1c-2-4.5-4.4-9.5-6.4-13.3L215.8,476.4z"/>
		<path class="st92" d="M227.7,467.1c9.9,0,20.6-0.3,30.7-0.8l0.2,2.7c-13.1,1.2-19.8,6.7-19.8,14c0,6.2,4.3,9.8,10.8,9.8
			c1.5,0,3.2-0.2,4.7-0.4l0.3,2.7c-1.7,0.3-3.4,0.5-5.2,0.5c-8.4,0-13.8-4.6-13.8-12.2c0-6.2,4.1-11.1,11.3-13.9l0-0.1
			c-6.6,0.3-13.1,0.5-19.3,0.5V467.1z M252.4,474.1c1.2,1.9,2.4,4.1,3.5,6.2l-2.3,1.1c-1.1-2-2.3-4.3-3.5-6.2L252.4,474.1z
			 M257.8,472.6c1.2,2,2.5,4.3,3.6,6.4l-2.3,1.1c-1.1-2-2.4-4.3-3.6-6.3L257.8,472.6z"/>
		<path class="st92" d="M276.9,468.1V463h2.8v5.2h9.8v2.4h-9.8v6.5c1.1-0.1,2.2-0.2,3.4-0.2c7.9,0,12.5,4.2,12.5,8.5
			c0,5.8-3.6,9.2-10.7,9.9l-0.6-2.5c5.7-0.6,8.4-3,8.4-7.2c0-3-3.5-6-9.7-6c-1.2,0-2.4,0.1-3.4,0.2v9.7c0,3.8-1.4,5.2-5.2,5.2
			c-4.4,0-8.4-3.5-8.4-7.5c0-4.2,3.7-8.2,10.8-9.7v-6.9h-9.4v-2.4H276.9z M268.9,487.1c0,2.5,2.7,5,5.3,5c1.9,0,2.7-0.7,2.7-2.8
			v-9.2C271.6,481.4,268.9,484.2,268.9,487.1z M292.9,466.7c2.4,2.5,4.3,5,6.2,8L297,476c-1.9-2.9-3.8-5.3-6.1-7.8L292.9,466.7z"/>
		<path class="st92" d="M312.1,478.4c1.8,3.3,4.4,6.2,7.9,8.5c4-2.6,6.9-5.8,9-9.5h-22.7V475h12v-5.5h-14.9v-2.5h14.9v-4.4h3v4.4
			h14.9v2.5h-14.9v5.5h10.9v2.5c-2.2,4.4-5.4,8.2-9.7,11.1c3.8,2.1,8.5,3.6,14.1,4.8l-0.9,2.5c-6.5-1.3-11.7-3.1-16-5.6
			c-4.4,2.5-9.7,4.4-16.1,5.6l-0.9-2.5c5.7-1.1,10.4-2.7,14.4-4.8c-3.5-2.5-6.1-5.5-8-9.1L312.1,478.4z"/>
		<path class="st92" d="M354.2,472h-5v8.5c1.6-0.5,3.3-1,4.7-1.6l0.5,2.5c-1.6,0.6-3.4,1.2-5.2,1.7v8.3c0,4.3-0.3,4.8-3.5,4.8
			c-0.9,0-2.5-0.1-4.4-0.2l-0.1-2.5c1.9,0.1,3.4,0.2,4.2,0.2c0.9,0,0.9,0,0.9-2.2V484c-1.8,0.5-3.6,0.9-5.2,1.2l-0.3-2.6
			c1.8-0.3,3.6-0.8,5.5-1.3V472h-5.4v-2.5h5.4v-6.6h2.9v6.6h5V472z M369.9,478c2.2,5.3,4.6,12.2,6.2,17.6l-2.8,0.9
			c-0.4-1.3-0.8-2.7-1.2-4.1c-7.4,1.5-14.6,2.5-21.2,2.8l-0.2-2.6c0.8,0,1.7-0.1,2.6-0.2c3.4-8.9,6.6-19.3,9-29.4l2.9,0.5
			c-2.3,9.7-5.4,19.8-8.7,28.6c4.7-0.5,9.7-1.2,14.7-2.2c-1.3-3.8-2.7-7.8-4.1-11.1L369.9,478z"/>
		<path class="st92" d="M384.2,480.2c0,7.1,3.2,11.7,5.3,11.7c1.4,0,4.3-2.9,6.8-9.4l2.7,1c-2.6,7.4-6.7,11.3-9.6,11.3
			c-3.7,0-8-6.2-8-14.6c0-4.3,0.6-9.4,1.7-13l2.8,0.4C384.8,471.1,384.2,476.1,384.2,480.2z M406.1,467c3.4,6.3,5.3,15,5.3,23.8
			h-2.9c0-8.3-1.8-16.8-5-22.9L406.1,467z"/>
		<path class="st92" d="M417.7,467.1c9.9,0,20.6-0.3,30.7-0.8l0.2,2.7c-13.1,1.2-19.8,6.7-19.8,14c0,6.2,4.3,9.8,10.8,9.8
			c1.5,0,3.2-0.2,4.7-0.4l0.3,2.7c-1.7,0.3-3.4,0.5-5.2,0.5c-8.4,0-13.8-4.6-13.8-12.2c0-6.2,4.1-11.1,11.3-13.9l0-0.1
			c-6.6,0.3-13.1,0.5-19.3,0.5V467.1z M442.4,474.1c1.2,1.9,2.4,4.1,3.5,6.2l-2.3,1.1c-1.1-2-2.3-4.3-3.5-6.2L442.4,474.1z
			 M447.8,472.6c1.2,2,2.5,4.3,3.6,6.4l-2.3,1.1c-1.1-2-2.4-4.3-3.6-6.3L447.8,472.6z"/>
		<path class="st92" d="M472.6,463.1l2.8-0.2c0.1,1.6,0.3,3.1,0.5,4.6c3.3-0.1,6.6-0.3,10-0.5l0.1,2.4c-3.3,0.2-6.5,0.3-9.7,0.4
			c0.3,1.7,0.8,3.2,1.4,4.8c3.1-0.1,6.2-0.2,9.2-0.4l0.1,2.4c-2.7,0.2-5.5,0.3-8.3,0.4c1,2.3,2.2,4.4,3.8,6.8l-2.5,1.8
			c-3.6-1.7-6.8-2.5-10-2.5c-5.4,0-7.7,1.6-7.7,4.3c0,3.6,3,5.4,10.9,5.4c2.7,0,5.8-0.3,8.9-0.8l0.3,2.5c-3,0.5-6.2,0.8-9.2,0.8
			c-9.5,0-13.9-2.7-13.9-7.9c0-3.4,2.7-6.6,10.8-6.6c2.5,0,5.7,0.6,8.2,1.6l0-0.1c-1-1.8-1.8-3.5-2.5-5.2c-6.4,0.2-12.8,0.3-19,0.3
			V475c5.9,0,12-0.1,18.1-0.3c-0.6-1.6-1-3.2-1.3-4.8c-5.2,0.2-10.4,0.3-15.4,0.3v-2.4c4.9,0,9.9-0.1,15-0.2
			C472.8,466.1,472.7,464.6,472.6,463.1z"/>
		<path class="st92" d="M513.9,467.4h10.4v2.5h-10.4v5.1h9.1v2.5h-9.1v7.7c2.8,1.5,6,3.8,9.5,6.9l-1.8,2c-2.9-2.6-5.5-4.6-7.8-6
			c-0.3,5.2-2.7,7.2-8.2,7.2c-5,0-8.1-2.5-8.1-6.6c0-2.9,1.7-6,8.1-6c1.7,0,3.5,0.4,5.4,1.2v-6.4h-14.4V475h14.4v-5.1h-15.7v-2.5
			h15.7v-4.3h2.8V467.4z M505.9,485.3c-3.3,0-5.5,1-5.5,3.5c0,2.5,2,4,5.2,4c4.1,0,5.4-1.4,5.4-5.8v-0.3
			C509.1,485.7,507.4,485.3,505.9,485.3z"/>
		<path class="st92" d="M550.9,467.5v-4.9h2.8v4.9H564v2.4h-10.4v8.5c0.4,1.2,0.7,3.2,0.7,4.7c0,7.5-3.8,11.3-12.8,12.5l-0.4-2.7
			c7.2-0.9,10.3-3.6,10.6-8.3v-0.5h-0.1c-1.1,1.6-3.2,2.5-5.8,2.5c-4.2,0-7.4-3.1-7.4-7.2c0-4.1,3.2-7.2,7.4-7.2
			c2.1,0,3.5,0.5,5,1.7h0.1v-4.1h-19.3v-2.4H550.9z M546.2,484.2c2.8,0,4.9-2.1,4.9-4.7c0-2.6-2.1-4.7-4.9-4.7
			c-2.8,0-4.9,2.1-4.9,4.7C541.3,482.1,543.4,484.2,546.2,484.2z"/>
		<path class="st92" d="M575,484.8c3.2,0,5.8,2.6,5.8,5.8s-2.6,5.9-5.8,5.9s-5.9-2.6-5.9-5.9S571.8,484.8,575,484.8z M575,494.2
			c2,0,3.5-1.6,3.5-3.6s-1.6-3.5-3.5-3.5c-2,0-3.6,1.6-3.6,3.5S573,494.2,575,494.2z"/>
	</g>
</g>
</svg>
