<?xml version="1.0" encoding="utf-8"?>
<!-- Generator: Adobe Illustrator 26.2.1, SVG Export Plug-In . SVG Version: 6.00 Build 0)  -->
<svg version="1.1" xmlns="http://www.w3.org/2000/svg" xmlns:xlink="http://www.w3.org/1999/xlink" x="0px" y="0px"
	 viewBox="0 0 189.6 194.4" style="enable-background:new 0 0 189.6 194.4;" xml:space="preserve">
<style type="text/css">
	.st0{fill:#22BCB9;}
	.st1{fill:#C97E00;}
	.st2{fill:#FFFFFF;}
	.st3{fill:#FFCD00;}
	.st4{opacity:0.6;fill:url(#SVGID_1_);}
	.st5{fill:#FF802A;}
	.st6{opacity:0.5;fill:#FFFFFF;}
	.st7{fill:#FFD2A2;}
	.st8{fill:#F7F6F8;}
</style>
<g id="Background">
</g>
<g id="Designed_by_Freepik">
</g>
<g id="Objects">
	<g>
		<g>
			<g>
				<polygon class="st1" points="132.7,185.2 0,194.4 0.7,5.5 132.7,8.4 				"/>
				<polygon class="st2" points="69.9,36.1 9.8,35.5 9.8,19.8 69.9,20.8 				"/>
				<polygon class="st2" points="44.6,76 25.3,76.2 25.4,56.3 44.6,56.3 				"/>
				<polygon class="st2" points="118.6,65.7 50.8,66.1 50.8,56.3 118.6,56.2 				"/>
				<polygon class="st2" points="44.5,115.7 25.2,116.3 25.3,96.4 44.6,96 				"/>
				<polygon class="st2" points="118.6,103.9 50.7,105.7 50.7,95.8 118.6,94.4 				"/>
				<polygon class="st2" points="44.4,155.5 25.1,156.5 25.1,136.5 44.5,135.7 				"/>
				<polygon class="st2" points="118.6,142.2 50.6,145.3 50.6,135.5 118.6,132.7 				"/>
			</g>
			<polygon class="st3" points="137.3,3 137.3,179.8 84.3,183.4 4.7,189 5.3,0 54.5,1.1 			"/>
			<linearGradient id="SVGID_1_" gradientUnits="userSpaceOnUse" x1="13.6341" y1="18.3366" x2="73.7613" y2="18.3366">
				<stop  offset="0" style="stop-color:#FF9085"/>
				<stop  offset="1" style="stop-color:#FB6FBB"/>
			</linearGradient>
			<polygon class="st4" points="73.7,26.5 13.6,25.9 13.7,10.2 73.8,11.2 			"/>
			<polygon class="st5" points="49.8,67.7 30.5,67.9 30.6,48 49.9,48 			"/>
			<polygon class="st6" points="123.8,57.4 56,57.8 56,48 123.8,48 			"/>
			<polygon class="st5" points="49.7,107.4 30.4,108 30.5,88.1 49.8,87.7 			"/>
			<polygon class="st6" points="123.8,95.6 55.9,97.4 55.9,87.6 123.8,86.2 			"/>
			<polygon class="st5" points="49.6,147.2 30.3,148.2 30.3,128.2 49.7,127.4 			"/>
			<polygon class="st6" points="123.8,133.9 55.8,137 55.8,127.2 123.8,124.4 			"/>
		</g>
		<g>
			<path class="st0" d="M189.6,54.6c-1.8-4.9-4.9-8.7-9.3-11.5L57.6,142.3l9.3,11.5L189.6,54.6z"/>
			<path class="st7" d="M66.9,153.8c-1.4-5.2-4.4-9-9.3-11.5l-23.4,27.8c-0.3,0.3,0.2,0.9,0.6,0.7L66.9,153.8z"/>
			<path class="st1" d="M34.2,170.1l9.1-10.8c1.7,1.4,3,3,4,4.9l-12.5,6.6C34.4,171,33.9,170.4,34.2,170.1z"/>
		</g>
	</g>
</g>
</svg>
