<?xml version="1.0" encoding="utf-8"?>
<!-- Generator: Adobe Illustrator 26.2.1, SVG Export Plug-In . SVG Version: 6.00 Build 0)  -->
<svg version="1.1" xmlns="http://www.w3.org/2000/svg" xmlns:xlink="http://www.w3.org/1999/xlink" x="0px" y="0px"
	 viewBox="0 0 172.2 172.2" style="enable-background:new 0 0 172.2 172.2;" xml:space="preserve">
<style type="text/css">
	.st0{fill:#22BCB9;}
	.st1{fill:#C97E00;}
	.st2{fill:#FFFFFF;}
	.st3{fill:#FFCD00;}
	.st4{opacity:0.6;fill:url(#SVGID_1_);}
	.st5{fill:#FF802A;}
	.st6{opacity:0.5;fill:#FFFFFF;}
	.st7{fill:#FFD2A2;}
	.st8{fill:#F7F6F8;}
</style>
<g id="Background">
</g>
<g id="Designed_by_Freepik">
</g>
<g id="Objects">
	<g>
		<g>
			<path class="st0" d="M172.2,86.1c0,47.5-38.5,86.1-86.1,86.1C38.5,172.2,0,133.6,0,86.1C0,38.5,38.5,0,86.1,0
				C133.6,0,172.2,38.5,172.2,86.1z"/>
			<g>
				<path class="st8" d="M92.6,118.1c2.5,4.1,0,10.2-5.6,13.6c-5.6,3.4-12.2,2.9-14.7-1.1L43.5,83.8c-2.5-4.1,0-10.2,5.6-13.6
					c5.6-3.5,12.2-2.9,14.7,1.1L92.6,118.1z"/>
				<path class="st8" d="M91.6,128.3c-3.4,5.6-10.8,7.4-16.4,3.9c-5.6-3.4-7.4-10.8-3.9-16.4l39.6-64.6c3.4-5.6,10.8-7.4,16.4-3.9
					c5.6,3.4,7.4,10.8,3.9,16.4L91.6,128.3z"/>
			</g>
		</g>
	</g>
</g>
</svg>
