<?xml version="1.0" encoding="utf-8"?>
<!-- Generator: Adobe Illustrator 26.2.1, SVG Export Plug-In . SVG Version: 6.00 Build 0)  -->
<svg version="1.1" xmlns="http://www.w3.org/2000/svg" xmlns:xlink="http://www.w3.org/1999/xlink" x="0px" y="0px"
	 viewBox="0 0 174.6 185.2" style="enable-background:new 0 0 174.6 185.2;" xml:space="preserve">
<style type="text/css">
	.st0{fill:#22BCB9;}
	.st1{fill:#C97E00;}
	.st2{fill:#FFFFFF;}
	.st3{fill:#FFCD00;}
	.st4{opacity:0.6;fill:url(#SVGID_1_);}
	.st5{fill:#FF802A;}
	.st6{opacity:0.5;fill:#FFFFFF;}
	.st7{fill:#FFD2A2;}
	.st8{fill:#F7F6F8;}
</style>
<g id="Background">
</g>
<g id="Designed_by_Freepik">
</g>
<g id="Objects">
	<g>
		<g>
			<path class="st0" d="M172.7,57.6c-2.9-16-9.1-29-17.9-37.7c-7.2-7-17.5-12.4-30.7-15.8C114,1.4,102.5,0,91.5,0
				c-1.4,0-2.8,0-4.2,0.1C85.9,0,84.5,0,83.1,0C72.2,0,60.6,1.4,50.6,4.1C37.4,7.5,27,12.9,19.9,19.9c-8.8,8.7-15,21.7-17.9,37.7
				c-3.1,16.8-2.5,36.1,1.7,57.2c2.2,11.1,7.5,20.5,15.7,27.9c4.2,3.8,10.8,9.7,21,12.3l0.9,21.5c0,0,0,6.4,4.1,8.1
				c4.1,1.6,8.1-0.5,11.6-4.1c3.5-3.6,17.9-19.9,17.9-19.9c2.7,0,17,0.6,20.7,0.6l0,0c10.4,0,26-1.4,40.3-7
				c19.5-7.6,31.5-20.9,35.2-39.4C175.2,93.7,175.8,74.4,172.7,57.6z M157.6,112.2c-8.3,41.5-77.8,35.9-85.3,35.6
				c-6.7,8.5-15.1,19.2-17.9,20.7c-3.7,1.9-4.4-2-4.4-2l0.8-22.1c-14.1-4.6-30.4-14.5-33.9-32.2c-8.3-41.5-0.4-70,12.4-82.6
				C42.2,17,69.3,12.9,87.3,13.7c18.1-0.7,45.1,3.3,57.9,15.9C158,42.2,165.9,70.7,157.6,112.2z"/>
		</g>
		<path class="st0" d="M120.8,41.2H54c-10.1,0-18.3,8.2-18.3,18.3v41.8c0,10.1,8.2,18.3,18.3,18.3h66.8c10.1,0,18.3-8.2,18.3-18.3
			V59.5C139.1,49.4,130.9,41.2,120.8,41.2z M120.8,50.7c0.6,0,1.2,0.1,1.8,0.2L87.4,86.1L52.2,50.9c0.6-0.1,1.2-0.2,1.8-0.2H120.8z
			 M129.6,101.3c0,4.8-3.9,8.8-8.8,8.8H54c-4.8,0-8.8-3.9-8.8-8.8V59.5c0-0.6,0.1-1.2,0.2-1.8l42,42l42-42c0.1,0.6,0.2,1.2,0.2,1.8
			V101.3z"/>
	</g>
</g>
</svg>
