<?xml version="1.0" encoding="utf-8"?>
<!-- Generator: Adobe Illustrator 26.2.1, SVG Export Plug-In . SVG Version: 6.00 Build 0)  -->
<svg version="1.1" xmlns="http://www.w3.org/2000/svg" xmlns:xlink="http://www.w3.org/1999/xlink" x="0px" y="0px"
	 viewBox="0 0 176.3 177.8" style="enable-background:new 0 0 176.3 177.8;" xml:space="preserve">
<style type="text/css">
	.st0{fill:#22BCB9;}
	.st1{fill:#C97E00;}
	.st2{fill:#FFFFFF;}
	.st3{fill:#FFCD00;}
	.st4{opacity:0.6;fill:url(#SVGID_1_);}
	.st5{fill:#FF802A;}
	.st6{opacity:0.5;fill:#FFFFFF;}
	.st7{fill:#FFD2A2;}
	.st8{fill:#F7F6F8;}
</style>
<g id="Background">
</g>
<g id="Designed_by_Freepik">
</g>
<g id="Objects">
	<g id="XMLID_205_">
		<path id="XMLID_207_" class="st3" d="M10.6,0C4.8,0,0,4.8,0,10.6v156.6c0,5.8,4.8,10.6,10.6,10.6h94.6V157
			c0-9.2,7.5-16.6,16.6-16.6h23.1V10.6c0-5.8-4.8-10.6-10.6-10.6H10.6z"/>
		<path id="XMLID_206_" class="st3" d="M111.2,157v16.8l29.1-27.4h-18.5C116,146.4,111.2,151.2,111.2,157z"/>
		<polygon class="st6" points="121.8,49.6 23.4,49.9 23.4,41.5 121.8,41.4 		"/>
		<polygon class="st6" points="121.8,76.5 23.4,76.9 23.4,68.4 121.8,68.4 		"/>
		<polygon class="st6" points="121.6,103.9 23.3,104.2 23.3,95.8 121.6,95.7 		"/>
	</g>
	<g id="XMLID_182_">
		<g id="XMLID_32_">
			<g>
				<g>
					<path class="st0" d="M175.2,145.3l-3.1-3.1l0,0l0,0l-0.9-0.9l0,0l-29.9-29.5c5.8-8.1,9.2-17.9,9.2-28.6
						c0-27.2-22.1-49.3-49.3-49.3c-27.2,0-49.3,22.1-49.3,49.3c0,27.2,22.1,49.3,49.3,49.3c10.1,0,19.5-3,27.3-8.2l30.8,30.3
						l3.4,3.4c2.1,2.2,6.7,1.1,10.2-2.4C176.3,152.1,177.4,147.5,175.2,145.3z M101.8,117.9c-19.1,0-34.7-15.5-34.7-34.7
						c0-19.1,15.5-34.7,34.7-34.7c19.1,0,34.7,15.5,34.7,34.7C136.5,102.4,121,117.9,101.8,117.9z"/>
				</g>
			</g>
		</g>
	</g>
</g>
</svg>
